<?xml version="1.0" encoding="UTF-8" standalone="no"?>
<svg
   width="648pt"
   height="504pt"
   viewBox="0 0 648 504"
   version="1.1"
   id="svg72"
   sodipodi:docname="ldos_t_0_00.svg"
   inkscape:version="1.4.2 (ebf0e94, 2025-05-08)"
   xmlns:inkscape="http://www.inkscape.org/namespaces/inkscape"
   xmlns:sodipodi="http://sodipodi.sourceforge.net/DTD/sodipodi-0.dtd"
   xmlns:xlink="http://www.w3.org/1999/xlink"
   xmlns="http://www.w3.org/2000/svg"
   xmlns:svg="http://www.w3.org/2000/svg"
   xmlns:rdf="http://www.w3.org/1999/02/22-rdf-syntax-ns#"
   xmlns:cc="http://creativecommons.org/ns#"
   xmlns:dc="http://purl.org/dc/elements/1.1/">
  <sodipodi:namedview
     id="namedview72"
     pagecolor="#ffffff"
     bordercolor="#000000"
     borderopacity="0.25"
     inkscape:showpageshadow="2"
     inkscape:pageopacity="0.0"
     inkscape:pagecheckerboard="0"
     inkscape:deskcolor="#d1d1d1"
     inkscape:document-units="pt"
     inkscape:zoom="1.1502976"
     inkscape:cx="432.0621"
     inkscape:cy="336"
     inkscape:window-width="1920"
     inkscape:window-height="991"
     inkscape:window-x="-9"
     inkscape:window-y="-9"
     inkscape:window-maximized="1"
     inkscape:current-layer="svg72" />
  <metadata
     id="metadata1">
    <rdf:RDF>
      <cc:Work>
        <dc:type
           rdf:resource="http://purl.org/dc/dcmitype/StillImage" />
        <dc:date>2025-07-21T01:46:58.118149</dc:date>
        <dc:format>image/svg+xml</dc:format>
        <dc:creator>
          <cc:Agent>
            <dc:title>Matplotlib v3.9.2, https://matplotlib.org/</dc:title>
          </cc:Agent>
        </dc:creator>
      </cc:Work>
    </rdf:RDF>
  </metadata>
  <defs
     id="defs1">
    <style
       type="text/css"
       id="style1">*{stroke-linejoin: round; stroke-linecap: butt}</style>
    <clipPath
       clipPathUnits="userSpaceOnUse"
       id="clipPath73">
      <rect
         style="fill:none;fill-rule:evenodd;stroke:none;stroke-width:0.75"
         id="rect74"
         width="627.88104"
         height="464.22772"
         x="18.90815"
         y="20.21216"
         ry="0.3260026" />
    </clipPath>
  </defs>
  <g
     id="figure_1"
     clip-path="url(#clipPath73)">
    <g
       id="patch_1">
      <path
         d="M 0 504  L 648 504  L 648 0  L 0 0  z "
         style="fill: #ffffff"
         id="path1" />
    </g>
    <g
       id="axes_1">
      <g
         id="patch_2">
        <path
           d="M 78.732615 428.500956  L 624.24 428.500956  L 624.24 49.617867  L 78.732615 49.617867  z "
           style="fill: #ffffff"
           id="path2" />
      </g>
      <g
         id="matplotlib.axis_1">
        <g
           id="xtick_1">
          <g
             id="line2d_1">
            <path
               d="M 133.283353 428.500956  L 133.283353 49.617867  "
               clip-path="url(#p3ec54ac981)"
               style="fill: none; stroke: #b0b0b0; stroke-opacity: 0.3; stroke-width: 0.8; stroke-linecap: square"
               id="path3" />
          </g>
          <g
             id="line2d_2">
            <defs
               id="defs3">
              <path
                 id="m1228ff0972"
                 d="M 0 0  L 0 3.5  "
                 style="stroke: #000000; stroke-width: 0.8" />
            </defs>
            <g
               id="g3">
              <use
                 xlink:href="#m1228ff0972"
                 x="133.283353"
                 y="428.500956"
                 style="stroke: #000000; stroke-width: 0.8"
                 id="use3" />
            </g>
          </g>
          <g
             id="text_1">
            <!-- $\mathdefault{−0.4}$ -->
            <g
               transform="translate(111.727142 450.72165) scale(0.22 -0.22)"
               id="g7">
              <defs
                 id="defs4">
                <path
                   id="CMSY10-0"
                   d="M 4218 1472  C 4326 1472 4442 1472 4442 1600  C 4442 1728 4326 1728 4218 1728  L 755 1728  C 646 1728 531 1728 531 1600  C 531 1472 646 1472 755 1472  L 4218 1472  z "
                   transform="scale(0.015625)" />
                <path
                   id="CMR17-30"
                   d="M 2688 2025  C 2688 2416 2682 3080 2413 3591  C 2176 4039 1798 4198 1466 4198  C 1158 4198 768 4058 525 3597  C 269 3118 243 2524 243 2025  C 243 1661 250 1106 448 619  C 723 -39 1216 -128 1466 -128  C 1760 -128 2208 -7 2470 600  C 2662 1042 2688 1559 2688 2025  z M 1466 -26  C 1056 -26 813 325 723 812  C 653 1188 653 1738 653 2096  C 653 2588 653 2997 736 3387  C 858 3929 1216 4096 1466 4096  C 1728 4096 2067 3923 2189 3400  C 2272 3036 2278 2607 2278 2096  C 2278 1680 2278 1169 2202 792  C 2067 95 1690 -26 1466 -26  z "
                   transform="scale(0.015625)" />
                <path
                   id="CMMI12-3a"
                   d="M 1178 307  C 1178 492 1024 619 870 619  C 685 619 557 466 557 313  C 557 128 710 0 864 0  C 1050 0 1178 153 1178 307  z "
                   transform="scale(0.015625)" />
                <path
                   id="CMR17-34"
                   d="M 2150 4122  C 2150 4256 2144 4256 2029 4256  L 128 1254  L 128 1088  L 1779 1088  L 1779 457  C 1779 224 1766 160 1318 160  L 1197 160  L 1197 0  C 1402 0 1747 0 1965 0  C 2182 0 2528 0 2733 0  L 2733 160  L 2611 160  C 2163 160 2150 224 2150 457  L 2150 1088  L 2803 1088  L 2803 1254  L 2150 1254  L 2150 4122  z M 1798 3703  L 1798 1254  L 256 1254  L 1798 3703  z "
                   transform="scale(0.015625)" />
              </defs>
              <use
                 xlink:href="#CMSY10-0"
                 transform="scale(0.996264)"
                 id="use4" />
              <use
                 xlink:href="#CMR17-30"
                 transform="translate(77.487468 0) scale(0.996264)"
                 id="use5" />
              <use
                 xlink:href="#CMMI12-3a"
                 transform="translate(123.177945 0) scale(0.996264)"
                 id="use6" />
              <use
                 xlink:href="#CMR17-34"
                 transform="translate(150.275122 0) scale(0.996264)"
                 id="use7" />
            </g>
          </g>
        </g>
        <g
           id="xtick_2">
          <g
             id="line2d_3">
            <path
               d="M 242.38483 428.500956  L 242.38483 49.617867  "
               clip-path="url(#p3ec54ac981)"
               style="fill: none; stroke: #b0b0b0; stroke-opacity: 0.3; stroke-width: 0.8; stroke-linecap: square"
               id="path7" />
          </g>
          <g
             id="line2d_4">
            <g
               id="g8">
              <use
                 xlink:href="#m1228ff0972"
                 x="242.38483"
                 y="428.500956"
                 style="stroke: #000000; stroke-width: 0.8"
                 id="use8" />
            </g>
          </g>
          <g
             id="text_2">
            <!-- $\mathdefault{−0.2}$ -->
            <g
               transform="translate(220.828619 450.72165) scale(0.22 -0.22)"
               id="g12">
              <defs
                 id="defs8">
                <path
                   id="CMR17-32"
                   d="M 2669 989  L 2554 989  C 2490 536 2438 459 2413 420  C 2381 369 1920 369 1830 369  L 602 369  C 832 619 1280 1072 1824 1597  C 2214 1967 2669 2402 2669 3035  C 2669 3790 2067 4224 1395 4224  C 691 4224 262 3604 262 3030  C 262 2780 448 2748 525 2748  C 589 2748 781 2787 781 3010  C 781 3207 614 3264 525 3264  C 486 3264 448 3258 422 3245  C 544 3790 915 4058 1306 4058  C 1862 4058 2227 3617 2227 3035  C 2227 2479 1901 2000 1536 1584  L 262 146  L 262 0  L 2515 0  L 2669 989  z "
                   transform="scale(0.015625)" />
              </defs>
              <use
                 xlink:href="#CMSY10-0"
                 transform="scale(0.996264)"
                 id="use9" />
              <use
                 xlink:href="#CMR17-30"
                 transform="translate(77.487468 0) scale(0.996264)"
                 id="use10" />
              <use
                 xlink:href="#CMMI12-3a"
                 transform="translate(123.177945 0) scale(0.996264)"
                 id="use11" />
              <use
                 xlink:href="#CMR17-32"
                 transform="translate(150.275122 0) scale(0.996264)"
                 id="use12" />
            </g>
          </g>
        </g>
        <g
           id="xtick_3">
          <g
             id="line2d_5">
            <path
               d="M 351.486307 428.500956  L 351.486307 49.617867  "
               clip-path="url(#p3ec54ac981)"
               style="fill: none; stroke: #b0b0b0; stroke-opacity: 0.3; stroke-width: 0.8; stroke-linecap: square"
               id="path12" />
          </g>
          <g
             id="line2d_6">
            <g
               id="g13">
              <use
                 xlink:href="#m1228ff0972"
                 x="351.486307"
                 y="428.500956"
                 style="stroke: #000000; stroke-width: 0.8"
                 id="use13" />
            </g>
          </g>
          <g
             id="text_3">
            <!-- $\mathdefault{0.0}$ -->
            <g
               transform="translate(338.453713 450.72165) scale(0.22 -0.22)"
               id="g16">
              <use
                 xlink:href="#CMR17-30"
                 transform="scale(0.996264)"
                 id="use14" />
              <use
                 xlink:href="#CMMI12-3a"
                 transform="translate(45.690477 0) scale(0.996264)"
                 id="use15" />
              <use
                 xlink:href="#CMR17-30"
                 transform="translate(72.787654 0) scale(0.996264)"
                 id="use16" />
            </g>
          </g>
        </g>
        <g
           id="xtick_4">
          <g
             id="line2d_7">
            <path
               d="M 460.587784 428.500956  L 460.587784 49.617867  "
               clip-path="url(#p3ec54ac981)"
               style="fill: none; stroke: #b0b0b0; stroke-opacity: 0.3; stroke-width: 0.8; stroke-linecap: square"
               id="path16" />
          </g>
          <g
             id="line2d_8">
            <g
               id="g17">
              <use
                 xlink:href="#m1228ff0972"
                 x="460.587784"
                 y="428.500956"
                 style="stroke: #000000; stroke-width: 0.8"
                 id="use17" />
            </g>
          </g>
          <g
             id="text_4">
            <!-- $\mathdefault{0.2}$ -->
            <g
               transform="translate(447.55519 450.72165) scale(0.22 -0.22)"
               id="g20">
              <use
                 xlink:href="#CMR17-30"
                 transform="scale(0.996264)"
                 id="use18" />
              <use
                 xlink:href="#CMMI12-3a"
                 transform="translate(45.690477 0) scale(0.996264)"
                 id="use19" />
              <use
                 xlink:href="#CMR17-32"
                 transform="translate(72.787654 0) scale(0.996264)"
                 id="use20" />
            </g>
          </g>
        </g>
        <g
           id="xtick_5">
          <g
             id="line2d_9">
            <path
               d="M 569.689261 428.500956  L 569.689261 49.617867  "
               clip-path="url(#p3ec54ac981)"
               style="fill: none; stroke: #b0b0b0; stroke-opacity: 0.3; stroke-width: 0.8; stroke-linecap: square"
               id="path20" />
          </g>
          <g
             id="line2d_10">
            <g
               id="g21">
              <use
                 xlink:href="#m1228ff0972"
                 x="569.689261"
                 y="428.500956"
                 style="stroke: #000000; stroke-width: 0.8"
                 id="use21" />
            </g>
          </g>
          <g
             id="text_5">
            <!-- $\mathdefault{0.4}$ -->
            <g
               transform="translate(556.656667 450.72165) scale(0.22 -0.22)"
               id="g24">
              <use
                 xlink:href="#CMR17-30"
                 transform="scale(0.996264)"
                 id="use22" />
              <use
                 xlink:href="#CMMI12-3a"
                 transform="translate(45.690477 0) scale(0.996264)"
                 id="use23" />
              <use
                 xlink:href="#CMR17-34"
                 transform="translate(72.787654 0) scale(0.996264)"
                 id="use24" />
            </g>
          </g>
        </g>
        <g
           id="text_6">
          <!-- $\omega$ -->
          <g
             transform="translate(344.19706 475.589243) scale(0.24 -0.24)"
             id="g25">
            <defs
               id="defs24">
              <path
                 id="CMMI12-21"
                 d="M 3802 2395  C 3802 2580 3750 2816 3526 2816  C 3398 2816 3251 2657 3251 2529  C 3251 2472 3277 2434 3328 2376  C 3424 2268 3546 2096 3546 1797  C 3546 1567 3405 1204 3302 1007  C 3123 656 2829 357 2496 357  C 2093 357 1939 615 1869 975  C 1939 1143 2086 1560 2086 1728  C 2086 1798 2061 1856 1978 1856  C 1933 1856 1882 1831 1850 1779  C 1760 1638 1677 1129 1683 994  C 1562 756 1216 357 806 357  C 378 357 262 733 262 1096  C 262 1758 678 2338 794 2497  C 858 2593 902 2657 902 2669  C 902 2714 877 2784 819 2784  C 717 2784 685 2701 634 2625  C 307 2121 77 1414 77 803  C 77 408 224 -64 704 -64  C 1235 -64 1568 391 1702 634  C 1754 275 1946 -64 2413 -64  C 2899 -64 3206 363 3437 879  C 3603 1249 3802 2045 3802 2395  z "
                 transform="scale(0.015625)" />
            </defs>
            <use
               xlink:href="#CMMI12-21"
               transform="scale(0.996264)"
               id="use25" />
          </g>
        </g>
      </g>
      <g
         id="matplotlib.axis_2">
        <g
           id="ytick_1">
          <g
             id="line2d_11">
            <path
               d="M 78.732615 411.279089  L 624.24 411.279089  "
               clip-path="url(#p3ec54ac981)"
               style="fill: none; stroke: #b0b0b0; stroke-opacity: 0.3; stroke-width: 0.8; stroke-linecap: square"
               id="path25" />
          </g>
          <g
             id="line2d_12">
            <defs
               id="defs25">
              <path
                 id="me9eb4e3daf"
                 d="M 0 0  L -3.5 0  "
                 style="stroke: #000000; stroke-width: 0.8" />
            </defs>
            <g
               id="g26">
              <use
                 xlink:href="#me9eb4e3daf"
                 x="78.732615"
                 y="411.279089"
                 style="stroke: #000000; stroke-width: 0.8"
                 id="use26" />
            </g>
          </g>
          <g
             id="text_7">
            <!-- $\mathdefault{0}$ -->
            <g
               transform="translate(61.68071 418.889436) scale(0.22 -0.22)"
               id="g27">
              <use
                 xlink:href="#CMR17-30"
                 transform="scale(0.996264)"
                 id="use27" />
            </g>
          </g>
        </g>
        <g
           id="ytick_2">
          <g
             id="line2d_13">
            <path
               d="M 78.732615 336.938642  L 624.24 336.938642  "
               clip-path="url(#p3ec54ac981)"
               style="fill: none; stroke: #b0b0b0; stroke-opacity: 0.3; stroke-width: 0.8; stroke-linecap: square"
               id="path27" />
          </g>
          <g
             id="line2d_14">
            <g
               id="g28">
              <use
                 xlink:href="#me9eb4e3daf"
                 x="78.732615"
                 y="336.938642"
                 style="stroke: #000000; stroke-width: 0.8"
                 id="use28" />
            </g>
          </g>
          <g
             id="text_8">
            <!-- $\mathdefault{5}$ -->
            <g
               transform="translate(61.68071 344.548989) scale(0.22 -0.22)"
               id="g29">
              <defs
                 id="defs28">
                <path
                   id="CMR17-35"
                   d="M 730 3692  C 794 3666 1056 3584 1325 3584  C 1920 3584 2246 3911 2432 4100  C 2432 4157 2432 4192 2394 4192  C 2387 4192 2374 4192 2323 4163  C 2099 4058 1837 3973 1517 3973  C 1325 3973 1037 3999 723 4139  C 653 4171 640 4171 634 4171  C 602 4171 595 4164 595 4037  L 595 2203  C 595 2089 595 2057 659 2057  C 691 2057 704 2070 736 2114  C 941 2401 1222 2522 1542 2522  C 1766 2522 2246 2382 2246 1289  C 2246 1085 2246 715 2054 421  C 1894 159 1645 25 1370 25  C 947 25 518 320 403 814  C 429 807 480 795 506 795  C 589 795 749 840 749 1038  C 749 1210 627 1280 506 1280  C 358 1280 262 1190 262 1011  C 262 454 704 -128 1382 -128  C 2042 -128 2669 440 2669 1264  C 2669 2030 2170 2624 1549 2624  C 1222 2624 947 2503 730 2274  L 730 3692  z "
                   transform="scale(0.015625)" />
              </defs>
              <use
                 xlink:href="#CMR17-35"
                 transform="scale(0.996264)"
                 id="use29" />
            </g>
          </g>
        </g>
        <g
           id="ytick_3">
          <g
             id="line2d_15">
            <path
               d="M 78.732615 262.598195  L 624.24 262.598195  "
               clip-path="url(#p3ec54ac981)"
               style="fill: none; stroke: #b0b0b0; stroke-opacity: 0.3; stroke-width: 0.8; stroke-linecap: square"
               id="path29" />
          </g>
          <g
             id="line2d_16">
            <g
               id="g30">
              <use
                 xlink:href="#me9eb4e3daf"
                 x="78.732615"
                 y="262.598195"
                 style="stroke: #000000; stroke-width: 0.8"
                 id="use30" />
            </g>
          </g>
          <g
             id="text_9">
            <!-- $\mathdefault{10}$ -->
            <g
               transform="translate(51.628805 270.208542) scale(0.22 -0.22)"
               id="g32">
              <defs
                 id="defs30">
                <path
                   id="CMR17-31"
                   d="M 1702 4058  C 1702 4192 1696 4192 1606 4192  C 1357 3916 979 3827 621 3827  C 602 3827 570 3827 563 3808  C 557 3795 557 3782 557 3648  C 755 3648 1088 3686 1344 3839  L 1344 461  C 1344 236 1331 160 781 160  L 589 160  L 589 0  C 896 0 1216 0 1523 0  C 1830 0 2150 0 2458 0  L 2458 160  L 2266 160  C 1715 160 1702 230 1702 458  L 1702 4058  z "
                   transform="scale(0.015625)" />
              </defs>
              <use
                 xlink:href="#CMR17-31"
                 transform="scale(0.996264)"
                 id="use31" />
              <use
                 xlink:href="#CMR17-30"
                 transform="translate(45.690477 0) scale(0.996264)"
                 id="use32" />
            </g>
          </g>
        </g>
        <g
           id="ytick_4">
          <g
             id="line2d_17">
            <path
               d="M 78.732615 188.257748  L 624.24 188.257748  "
               clip-path="url(#p3ec54ac981)"
               style="fill: none; stroke: #b0b0b0; stroke-opacity: 0.3; stroke-width: 0.8; stroke-linecap: square"
               id="path32" />
          </g>
          <g
             id="line2d_18">
            <g
               id="g33">
              <use
                 xlink:href="#me9eb4e3daf"
                 x="78.732615"
                 y="188.257748"
                 style="stroke: #000000; stroke-width: 0.8"
                 id="use33" />
            </g>
          </g>
          <g
             id="text_10">
            <!-- $\mathdefault{15}$ -->
            <g
               transform="translate(51.628805 195.868094) scale(0.22 -0.22)"
               id="g35">
              <use
                 xlink:href="#CMR17-31"
                 transform="scale(0.996264)"
                 id="use34" />
              <use
                 xlink:href="#CMR17-35"
                 transform="translate(45.690477 0) scale(0.996264)"
                 id="use35" />
            </g>
          </g>
        </g>
        <g
           id="ytick_5">
          <g
             id="line2d_19">
            <path
               d="M 78.732615 113.917301  L 624.24 113.917301  "
               clip-path="url(#p3ec54ac981)"
               style="fill: none; stroke: #b0b0b0; stroke-opacity: 0.3; stroke-width: 0.8; stroke-linecap: square"
               id="path35" />
          </g>
          <g
             id="line2d_20">
            <g
               id="g36">
              <use
                 xlink:href="#me9eb4e3daf"
                 x="78.732615"
                 y="113.917301"
                 style="stroke: #000000; stroke-width: 0.8"
                 id="use36" />
            </g>
          </g>
          <g
             id="text_11">
            <!-- $\mathdefault{20}$ -->
            <g
               transform="translate(51.628805 121.527647) scale(0.22 -0.22)"
               id="g38">
              <use
                 xlink:href="#CMR17-32"
                 transform="scale(0.996264)"
                 id="use37" />
              <use
                 xlink:href="#CMR17-30"
                 transform="translate(45.690477 0) scale(0.996264)"
                 id="use38" />
            </g>
          </g>
        </g>
        <g
           id="text_12">
          <!-- $\rho(\omega)$ -->
          <g
             transform="translate(41.671226 261.282707) rotate(-90) scale(0.24 -0.24)"
             id="g42">
            <defs
               id="defs38">
              <path
                 id="CMMI12-1a"
                 d="M 198 -1107  C 192 -1139 179 -1177 179 -1216  C 179 -1312 256 -1376 352 -1376  C 448 -1376 538 -1312 576 -1222  C 602 -1164 781 -397 986 390  C 1114 70 1350 -64 1600 -64  C 2323 -64 3142 830 3142 1795  C 3142 2478 2726 2816 2285 2816  C 1722 2816 1037 2235 826 1385  L 198 -1107  z M 1594 64  C 1158 64 1050 569 1050 645  C 1050 684 1210 1295 1229 1391  C 1555 2670 2182 2670 2278 2670  C 2566 2670 2726 2410 2726 2036  C 2726 1712 2554 1084 2445 819  C 2253 381 1920 64 1594 64  z "
                 transform="scale(0.015625)" />
              <path
                 id="CMR17-28"
                 d="M 1958 -1561  C 1958 -1555 1958 -1542 1939 -1523  C 1645 -1224 858 -407 858 1581  C 858 3569 1632 4379 1946 4697  C 1946 4704 1958 4717 1958 4736  C 1958 4755 1939 4768 1914 4768  C 1843 4768 1299 4296 986 3594  C 666 2887 576 2199 576 1588  C 576 1128 621 351 1005 -471  C 1312 -1135 1837 -1600 1914 -1600  C 1946 -1600 1958 -1587 1958 -1561  z "
                 transform="scale(0.015625)" />
              <path
                 id="CMR17-29"
                 d="M 1683 1581  C 1683 2040 1638 2817 1254 3639  C 947 4303 422 4768 346 4768  C 326 4768 301 4761 301 4729  C 301 4717 307 4710 314 4697  C 621 4378 1402 3568 1402 1584  C 1402 -407 627 -1217 314 -1537  C 307 -1549 301 -1556 301 -1568  C 301 -1600 326 -1600 346 -1600  C 416 -1600 960 -1128 1274 -426  C 1594 281 1683 969 1683 1581  z "
                 transform="scale(0.015625)" />
            </defs>
            <use
               xlink:href="#CMMI12-1a"
               transform="scale(0.996264)"
               id="use39" />
            <use
               xlink:href="#CMR17-28"
               transform="translate(50.314373 0) scale(0.996264)"
               id="use40" />
            <use
               xlink:href="#CMMI12-21"
               transform="translate(85.595141 0) scale(0.996264)"
               id="use41" />
            <use
               xlink:href="#CMR17-29"
               transform="translate(149.913487 0) scale(0.996264)"
               id="use42" />
          </g>
        </g>
      </g>
      <g
         id="line2d_21">
        <path
           d="M 78.425729 411.273247  L 292.291357 411.154812  L 315.205531 410.948443  L 325.025892 410.657965  L 330.481648 410.29438  L 333.755101 409.898732  L 336.482979 409.354032  L 338.119706 408.857037  L 339.756432 408.14016  L 340.847584 407.470302  L 341.938735 406.561838  L 343.029886 405.287161  L 344.121037 403.421208  L 344.666613 402.146287  L 345.212188 400.537561  L 345.757764 398.469152  L 346.303339 395.750835  L 346.848915 392.0851  L 347.394491 386.987857  L 347.940066 379.634676  L 348.485642 368.547259  L 349.031217 350.925159  L 349.576793 321.210627  L 350.122368 268.48248  L 350.667944 177.078027  L 351.21352 66.839826  L 351.759095 66.839826  L 352.850246 268.48248  L 353.395822 321.210627  L 353.941398 350.925159  L 354.486973 368.547259  L 355.032549 379.634676  L 355.578124 386.987857  L 356.1237 392.0851  L 356.669275 395.750835  L 357.214851 398.469152  L 357.760427 400.537561  L 358.851578 403.421208  L 359.942729 405.287161  L 361.03388 406.561838  L 362.125031 407.470302  L 363.216182 408.14016  L 364.852909 408.857037  L 367.035212 409.486104  L 369.763089 409.979623  L 373.582119 410.389003  L 379.037874 410.706113  L 387.767084 410.948443  L 403.0432 411.115279  L 437.414462 411.2201  L 554.713212 411.268542  L 624.546886 411.273247  L 624.546886 411.273247  "
           clip-path="url(#p3ec54ac981)"
           style="fill: none; stroke: #ff00ff; stroke-linecap: square"
           id="path42" />
      </g>
      <g
         id="patch_3">
        <path
           d="M 78.732615 428.500956  L 78.732615 49.617867  "
           style="fill: none; stroke: #000000; stroke-width: 0.8; stroke-linejoin: miter; stroke-linecap: square"
           id="path43" />
      </g>
      <g
         id="patch_4">
        <path
           d="M 624.24 428.500956  L 624.24 49.617867  "
           style="fill: none; stroke: #000000; stroke-width: 0.8; stroke-linejoin: miter; stroke-linecap: square"
           id="path44" />
      </g>
      <g
         id="patch_5">
        <path
           d="M 78.732615 428.500956  L 624.24 428.500956  "
           style="fill: none; stroke: #000000; stroke-width: 0.8; stroke-linejoin: miter; stroke-linecap: square"
           id="path45" />
      </g>
      <g
         id="patch_6">
        <path
           d="M 78.732615 49.617867  L 624.24 49.617867  "
           style="fill: none; stroke: #000000; stroke-width: 0.8; stroke-linejoin: miter; stroke-linecap: square"
           id="path46" />
      </g>
      <g
         id="text_13">
        <!-- $\rho(x,\omega) = 2f(x,x)\delta(\omega)$ with $t = 0.0$ -->
        <g
           transform="translate(164.126179 43.163829) scale(0.26 -0.26)"
           id="g72">
          <defs
             id="defs46">
            <path
               id="CMMI12-78"
               d="M 3034 2606  C 2829 2567 2752 2414 2752 2293  C 2752 2139 2874 2088 2963 2088  C 3155 2088 3290 2254 3290 2427  C 3290 2695 2982 2816 2714 2816  C 2323 2816 2106 2433 2048 2312  C 1901 2816 1504 2816 1389 2816  C 736 2816 390 1980 390 1839  C 390 1814 416 1782 461 1782  C 512 1782 525 1820 538 1846  C 755 2555 1184 2689 1370 2689  C 1658 2689 1715 2420 1715 2267  C 1715 2127 1677 1980 1600 1673  L 1382 798  C 1286 415 1101 64 762 64  C 730 64 570 64 435 147  C 666 192 717 383 717 460  C 717 588 621 664 499 664  C 346 664 179 530 179 326  C 179 57 480 -64 755 -64  C 1062 -64 1280 179 1414 441  C 1517 64 1837 -64 2074 -64  C 2726 -64 3072 773 3072 913  C 3072 945 3046 971 3008 971  C 2950 971 2944 939 2925 888  C 2752 326 2381 64 2093 64  C 1869 64 1747 230 1747 492  C 1747 632 1773 734 1875 1156  L 2099 2024  C 2195 2408 2413 2689 2707 2689  C 2720 2689 2899 2689 3034 2606  z "
               transform="scale(0.015625)" />
            <path
               id="CMMI12-3b"
               d="M 1248 -31  C 1248 343 1126 619 864 619  C 659 619 557 453 557 313  C 557 172 653 0 870 0  C 954 0 1024 26 1082 83  C 1094 96 1101 96 1107 96  C 1120 96 1120 5 1120 -27  C 1120 -240 1082 -659 710 -1080  C 640 -1157 640 -1170 640 -1183  C 640 -1216 672 -1248 704 -1248  C 755 -1248 1248 -771 1248 -31  z "
               transform="scale(0.015625)" />
            <path
               id="CMR17-3d"
               d="M 4115 2017  C 4211 2017 4307 2017 4307 2125  C 4307 2240 4198 2240 4090 2240  L 512 2240  C 403 2240 294 2240 294 2125  C 294 2017 390 2017 486 2017  L 4115 2017  z M 4090 896  C 4198 896 4307 896 4307 1011  C 4307 1119 4211 1119 4115 1119  L 486 1119  C 390 1119 294 1119 294 1011  C 294 896 403 896 512 896  L 4090 896  z "
               transform="scale(0.015625)" />
            <path
               id="CMMI12-66"
               d="M 2854 2566  C 2982 2566 3034 2566 3034 2688  C 3034 2752 2982 2752 2867 2752  L 2349 2752  C 2470 3429 2560 3897 2611 4107  C 2650 4265 2784 4416 2950 4416  C 3085 4416 3219 4358 3283 4298  C 3034 4272 2957 4082 2957 3969  C 2957 3837 3053 3759 3174 3759  C 3302 3759 3494 3870 3494 4119  C 3494 4393 3226 4544 2944 4544  C 2669 4544 2400 4334 2272 4078  C 2157 3848 2093 3611 1946 2752  L 1517 2752  C 1395 2752 1331 2752 1331 2637  C 1331 2566 1370 2566 1498 2566  L 1907 2566  C 1792 1976 1530 542 1382 -137  C 1274 -689 1178 -1152 858 -1152  C 838 -1152 653 -1152 538 -1031  C 864 -1005 864 -726 864 -720  C 864 -593 768 -517 646 -517  C 518 -517 326 -625 326 -867  C 326 -1140 608 -1280 858 -1280  C 1510 -1280 1779 -118 1850 199  C 1965 688 2278 2376 2310 2566  L 2854 2566  z "
               transform="scale(0.015625)" />
            <path
               id="CMMI12-e"
               d="M 1664 2795  C 845 2597 256 1748 256 1001  C 256 319 717 -64 1229 -64  C 1984 -64 2496 970 2496 1818  C 2496 2392 2227 2744 2067 2954  C 1830 3254 1446 3746 1446 4052  C 1446 4161 1530 4352 1811 4352  C 2010 4352 2131 4282 2323 4173  C 2381 4134 2528 4052 2611 4052  C 2746 4052 2842 4185 2842 4287  C 2842 4409 2746 4428 2522 4479  C 2221 4543 2131 4543 2022 4543  C 1914 4543 1286 4543 1286 3892  C 1286 3579 1446 3216 1664 2795  z M 1734 2669  C 1978 2165 2074 1974 2074 1560  C 2074 1063 1805 63 1235 63  C 986 63 627 229 627 821  C 627 1235 864 2439 1734 2669  z "
               transform="scale(0.015625)" />
            <path
               id="CMR17-77"
               d="M 3725 2183  C 3853 2560 4109 2560 4205 2560  L 4205 2732  C 4077 2732 3949 2732 3821 2732  C 3699 2732 3424 2732 3315 2738  L 3315 2560  C 3514 2560 3622 2445 3622 2286  C 3622 2241 3610 2184 3597 2140  L 2995 407  L 2342 2275  C 2330 2319 2310 2370 2310 2395  C 2310 2560 2528 2560 2630 2560  L 2630 2738  C 2483 2732 2214 2732 2061 2732  C 1901 2732 1734 2732 1587 2738  L 1587 2560  C 1939 2560 1939 2547 2074 2149  L 1485 451  L 851 2281  C 819 2363 819 2376 819 2395  C 819 2560 1037 2560 1139 2560  L 1139 2738  C 986 2732 717 2732 557 2732  C 416 2732 198 2732 64 2738  L 64 2560  C 346 2560 416 2541 486 2331  L 1274 49  C 1299 -33 1318 -52 1370 -52  C 1414 -52 1440 -39 1472 56  L 2131 1980  L 2797 56  C 2829 -39 2854 -52 2899 -52  C 2950 -52 2970 -33 2995 50  L 3725 2183  z "
               transform="scale(0.015625)" />
            <path
               id="CMR17-69"
               d="M 992 3909  C 992 4049 877 4170 730 4170  C 589 4170 467 4056 467 3909  C 467 3769 582 3648 730 3648  C 870 3648 992 3763 992 3909  z M 243 2706  L 243 2541  C 602 2541 653 2502 653 2197  L 653 427  C 653 184 627 153 218 153  L 218 -13  C 371 0 646 0 806 0  C 960 0 1222 0 1370 -13  L 1370 153  C 992 153 979 191 979 420  L 979 2776  L 243 2706  z "
               transform="scale(0.015625)" />
            <path
               id="CMR17-74"
               d="M 966 2560  L 1862 2560  L 1862 2725  L 966 2725  L 966 3904  L 851 3904  C 838 3245 614 2668 70 2668  L 70 2560  L 627 2560  L 627 771  C 627 650 627 -64 1370 -64  C 1747 -64 1965 306 1965 777  L 1965 1140  L 1850 1140  L 1850 783  C 1850 344 1677 51 1408 51  C 1222 51 966 178 966 758  L 966 2560  z "
               transform="scale(0.015625)" />
            <path
               id="CMR17-68"
               d="M 2656 1933  C 2656 2259 2592 2790 1837 2790  C 1312 2790 1056 2368 979 2157  L 973 2157  L 973 4396  L 211 4326  L 211 4160  C 589 4160 646 4122 646 3817  L 646 426  C 646 184 621 153 211 153  L 211 -13  C 365 0 646 0 813 0  C 979 0 1267 0 1421 -13  L 1421 153  C 1011 153 986 178 986 428  L 986 1658  C 986 2247 1344 2688 1792 2688  C 2266 2688 2317 2266 2317 1958  L 2317 428  C 2317 184 2291 153 1882 153  L 1882 -13  C 2035 0 2317 0 2483 0  C 2650 0 2938 0 3091 -13  L 3091 153  C 2682 153 2656 178 2656 428  L 2656 1933  z "
               transform="scale(0.015625)" />
            <path
               id="CMMI12-74"
               d="M 1286 2566  L 1875 2566  C 1997 2566 2061 2566 2061 2681  C 2061 2752 2022 2752 1894 2752  L 1331 2752  L 1568 3692  C 1594 3781 1594 3794 1594 3840  C 1594 3943 1510 4000 1427 4000  C 1376 4000 1229 3981 1178 3775  L 928 2752  L 326 2752  C 198 2752 141 2752 141 2630  C 141 2566 186 2566 307 2566  L 877 2566  L 454 881  C 403 658 384 594 384 511  C 384 211 595 -64 954 -64  C 1600 -64 1946 868 1946 912  C 1946 951 1920 970 1882 970  C 1869 970 1843 970 1830 944  C 1824 938 1818 931 1773 829  C 1638 511 1344 64 973 64  C 781 64 768 224 768 364  C 768 370 768 492 787 568  L 1286 2566  z "
               transform="scale(0.015625)" />
          </defs>
          <use
             xlink:href="#CMMI12-1a"
             transform="scale(0.996264)"
             id="use46" />
          <use
             xlink:href="#CMR17-28"
             transform="translate(50.314373 0) scale(0.996264)"
             id="use47" />
          <use
             xlink:href="#CMMI12-78"
             transform="translate(85.595141 0) scale(0.996264)"
             id="use48" />
          <use
             xlink:href="#CMMI12-3b"
             transform="translate(141.0292 0) scale(0.996264)"
             id="use49" />
          <use
             xlink:href="#CMMI12-21"
             transform="translate(184.730783 0) scale(0.996264)"
             id="use50" />
          <use
             xlink:href="#CMR17-29"
             transform="translate(249.049129 0) scale(0.996264)"
             id="use51" />
          <use
             xlink:href="#CMR17-3d"
             transform="translate(312.003905 0) scale(0.996264)"
             id="use52" />
          <use
             xlink:href="#CMR17-32"
             transform="translate(411.392702 0) scale(0.996264)"
             id="use53" />
          <use
             xlink:href="#CMMI12-66"
             transform="translate(457.083179 0) scale(0.996264)"
             id="use54" />
          <use
             xlink:href="#CMR17-28"
             transform="translate(515.803484 0) scale(0.996264)"
             id="use55" />
          <use
             xlink:href="#CMMI12-78"
             transform="translate(551.084252 0) scale(0.996264)"
             id="use56" />
          <use
             xlink:href="#CMMI12-3b"
             transform="translate(606.518311 0) scale(0.996264)"
             id="use57" />
          <use
             xlink:href="#CMMI12-78"
             transform="translate(650.219894 0) scale(0.996264)"
             id="use58" />
          <use
             xlink:href="#CMR17-29"
             transform="translate(705.653953 0) scale(0.996264)"
             id="use59" />
          <use
             xlink:href="#CMMI12-e"
             transform="translate(740.934721 0) scale(0.996264)"
             id="use60" />
          <use
             xlink:href="#CMR17-28"
             transform="translate(787.876107 0) scale(0.996264)"
             id="use61" />
          <use
             xlink:href="#CMMI12-21"
             transform="translate(823.156875 0) scale(0.996264)"
             id="use62" />
          <use
             xlink:href="#CMR17-29"
             transform="translate(887.475221 0) scale(0.996264)"
             id="use63" />
          <use
             xlink:href="#CMR17-77"
             transform="translate(952.831955 0) scale(0.996264)"
             id="use64" />
          <use
             xlink:href="#CMR17-69"
             transform="translate(1019.341836 0) scale(0.996264)"
             id="use65" />
          <use
             xlink:href="#CMR17-74"
             transform="translate(1044.212894 0) scale(0.996264)"
             id="use66" />
          <use
             xlink:href="#CMR17-68"
             transform="translate(1079.493662 0) scale(0.996264)"
             id="use67" />
          <use
             xlink:href="#CMMI12-74"
             transform="translate(1160.464998 0) scale(0.996264)"
             id="use68" />
          <use
             xlink:href="#CMR17-3d"
             transform="translate(1223.365337 0) scale(0.996264)"
             id="use69" />
          <use
             xlink:href="#CMR17-30"
             transform="translate(1322.754134 0) scale(0.996264)"
             id="use70" />
          <use
             xlink:href="#CMMI12-3a"
             transform="translate(1368.444611 0) scale(0.996264)"
             id="use71" />
          <use
             xlink:href="#CMR17-30"
             transform="translate(1395.541788 0) scale(0.996264)"
             id="use72" />
        </g>
      </g>
    </g>
  </g>
  <defs
     id="defs72">
    <clipPath
       id="p3ec54ac981">
      <rect
         x="78.732615"
         y="49.617867"
         width="545.507385"
         height="378.883089"
         id="rect72" />
    </clipPath>
  </defs>
</svg>
