<?xml version="1.0" encoding="utf-8" standalone="no"?>
<!DOCTYPE svg PUBLIC "-//W3C//DTD SVG 1.1//EN"
  "http://www.w3.org/Graphics/SVG/1.1/DTD/svg11.dtd">
<svg xmlns:xlink="http://www.w3.org/1999/xlink" width="720pt" height="576pt" viewBox="0 0 720 576" xmlns="http://www.w3.org/2000/svg" version="1.1">
 <metadata>
  <rdf:RDF xmlns:dc="http://purl.org/dc/elements/1.1/" xmlns:cc="http://creativecommons.org/ns#" xmlns:rdf="http://www.w3.org/1999/02/22-rdf-syntax-ns#">
   <cc:Work>
    <dc:type rdf:resource="http://purl.org/dc/dcmitype/StillImage"/>
    <dc:date>2025-07-19T00:31:33.611741</dc:date>
    <dc:format>image/svg+xml</dc:format>
    <dc:creator>
     <cc:Agent>
      <dc:title>Matplotlib v3.9.2, https://matplotlib.org/</dc:title>
     </cc:Agent>
    </dc:creator>
   </cc:Work>
  </rdf:RDF>
 </metadata>
 <defs>
  <style type="text/css">*{stroke-linejoin: round; stroke-linecap: butt}</style>
 </defs>
 <g id="figure_1">
  <g id="patch_1">
   <path d="M 0 576 
L 720 576 
L 720 0 
L 0 0 
z
" style="fill: #ffffff"/>
  </g>
  <g id="axes_1">
   <g id="patch_2">
    <path d="M 90.844507 523.313031 
L 704.88 523.313031 
L 704.88 34.55342 
L 90.844507 34.55342 
z
" style="fill: #ffffff"/>
   </g>
   <g id="matplotlib.axis_1">
    <g id="xtick_1">
     <g id="line2d_1">
      <path d="M 152.248056 523.313031 
L 152.248056 34.55342 
" clip-path="url(#p2c90815dd0)" style="fill: none; stroke: #b0b0b0; stroke-opacity: 0.3; stroke-width: 0.8; stroke-linecap: square"/>
     </g>
     <g id="line2d_2">
      <defs>
       <path id="mbc75d709a6" d="M 0 0 
L 0 3.5 
" style="stroke: #000000; stroke-width: 0.8"/>
      </defs>
      <g>
       <use xlink:href="#mbc75d709a6" x="152.248056" y="523.313031" style="stroke: #000000; stroke-width: 0.8"/>
      </g>
     </g>
     <g id="text_1">
      <!-- $\mathdefault{−4}$ -->
      <g transform="translate(143.409695 539.998907) scale(0.14 -0.14)">
       <defs>
        <path id="CMSY10-0" d="M 4218 1472 
C 4326 1472 4442 1472 4442 1600 
C 4442 1728 4326 1728 4218 1728 
L 755 1728 
C 646 1728 531 1728 531 1600 
C 531 1472 646 1472 755 1472 
L 4218 1472 
z
" transform="scale(0.015625)"/>
        <path id="CMR17-34" d="M 2150 4122 
C 2150 4256 2144 4256 2029 4256 
L 128 1254 
L 128 1088 
L 1779 1088 
L 1779 457 
C 1779 224 1766 160 1318 160 
L 1197 160 
L 1197 0 
C 1402 0 1747 0 1965 0 
C 2182 0 2528 0 2733 0 
L 2733 160 
L 2611 160 
C 2163 160 2150 224 2150 457 
L 2150 1088 
L 2803 1088 
L 2803 1254 
L 2150 1254 
L 2150 4122 
z
M 1798 3703 
L 1798 1254 
L 256 1254 
L 1798 3703 
z
" transform="scale(0.015625)"/>
       </defs>
       <use xlink:href="#CMSY10-0" transform="scale(0.996264)"/>
       <use xlink:href="#CMR17-34" transform="translate(77.487468 0) scale(0.996264)"/>
      </g>
     </g>
    </g>
    <g id="xtick_2">
     <g id="line2d_3">
      <path d="M 275.055155 523.313031 
L 275.055155 34.55342 
" clip-path="url(#p2c90815dd0)" style="fill: none; stroke: #b0b0b0; stroke-opacity: 0.3; stroke-width: 0.8; stroke-linecap: square"/>
     </g>
     <g id="line2d_4">
      <g>
       <use xlink:href="#mbc75d709a6" x="275.055155" y="523.313031" style="stroke: #000000; stroke-width: 0.8"/>
      </g>
     </g>
     <g id="text_2">
      <!-- $\mathdefault{−2}$ -->
      <g transform="translate(266.216793 539.998907) scale(0.14 -0.14)">
       <defs>
        <path id="CMR17-32" d="M 2669 989 
L 2554 989 
C 2490 536 2438 459 2413 420 
C 2381 369 1920 369 1830 369 
L 602 369 
C 832 619 1280 1072 1824 1597 
C 2214 1967 2669 2402 2669 3035 
C 2669 3790 2067 4224 1395 4224 
C 691 4224 262 3604 262 3030 
C 262 2780 448 2748 525 2748 
C 589 2748 781 2787 781 3010 
C 781 3207 614 3264 525 3264 
C 486 3264 448 3258 422 3245 
C 544 3790 915 4058 1306 4058 
C 1862 4058 2227 3617 2227 3035 
C 2227 2479 1901 2000 1536 1584 
L 262 146 
L 262 0 
L 2515 0 
L 2669 989 
z
" transform="scale(0.015625)"/>
       </defs>
       <use xlink:href="#CMSY10-0" transform="scale(0.996264)"/>
       <use xlink:href="#CMR17-32" transform="translate(77.487468 0) scale(0.996264)"/>
      </g>
     </g>
    </g>
    <g id="xtick_3">
     <g id="line2d_5">
      <path d="M 397.862254 523.313031 
L 397.862254 34.55342 
" clip-path="url(#p2c90815dd0)" style="fill: none; stroke: #b0b0b0; stroke-opacity: 0.3; stroke-width: 0.8; stroke-linecap: square"/>
     </g>
     <g id="line2d_6">
      <g>
       <use xlink:href="#mbc75d709a6" x="397.862254" y="523.313031" style="stroke: #000000; stroke-width: 0.8"/>
      </g>
     </g>
     <g id="text_3">
      <!-- $\mathdefault{0}$ -->
      <g transform="translate(394.448009 539.998907) scale(0.14 -0.14)">
       <defs>
        <path id="CMR17-30" d="M 2688 2025 
C 2688 2416 2682 3080 2413 3591 
C 2176 4039 1798 4198 1466 4198 
C 1158 4198 768 4058 525 3597 
C 269 3118 243 2524 243 2025 
C 243 1661 250 1106 448 619 
C 723 -39 1216 -128 1466 -128 
C 1760 -128 2208 -7 2470 600 
C 2662 1042 2688 1559 2688 2025 
z
M 1466 -26 
C 1056 -26 813 325 723 812 
C 653 1188 653 1738 653 2096 
C 653 2588 653 2997 736 3387 
C 858 3929 1216 4096 1466 4096 
C 1728 4096 2067 3923 2189 3400 
C 2272 3036 2278 2607 2278 2096 
C 2278 1680 2278 1169 2202 792 
C 2067 95 1690 -26 1466 -26 
z
" transform="scale(0.015625)"/>
       </defs>
       <use xlink:href="#CMR17-30" transform="scale(0.996264)"/>
      </g>
     </g>
    </g>
    <g id="xtick_4">
     <g id="line2d_7">
      <path d="M 520.669352 523.313031 
L 520.669352 34.55342 
" clip-path="url(#p2c90815dd0)" style="fill: none; stroke: #b0b0b0; stroke-opacity: 0.3; stroke-width: 0.8; stroke-linecap: square"/>
     </g>
     <g id="line2d_8">
      <g>
       <use xlink:href="#mbc75d709a6" x="520.669352" y="523.313031" style="stroke: #000000; stroke-width: 0.8"/>
      </g>
     </g>
     <g id="text_4">
      <!-- $\mathdefault{2}$ -->
      <g transform="translate(517.255108 539.998907) scale(0.14 -0.14)">
       <use xlink:href="#CMR17-32" transform="scale(0.996264)"/>
      </g>
     </g>
    </g>
    <g id="xtick_5">
     <g id="line2d_9">
      <path d="M 643.476451 523.313031 
L 643.476451 34.55342 
" clip-path="url(#p2c90815dd0)" style="fill: none; stroke: #b0b0b0; stroke-opacity: 0.3; stroke-width: 0.8; stroke-linecap: square"/>
     </g>
     <g id="line2d_10">
      <g>
       <use xlink:href="#mbc75d709a6" x="643.476451" y="523.313031" style="stroke: #000000; stroke-width: 0.8"/>
      </g>
     </g>
     <g id="text_5">
      <!-- $\mathdefault{4}$ -->
      <g transform="translate(640.062206 539.998907) scale(0.14 -0.14)">
       <use xlink:href="#CMR17-34" transform="scale(0.996264)"/>
      </g>
     </g>
    </g>
    <g id="text_6">
     <!-- $\omega$ -->
     <g transform="translate(393.002753 557.780524) scale(0.16 -0.16)">
      <defs>
       <path id="CMMI12-21" d="M 3802 2395 
C 3802 2580 3750 2816 3526 2816 
C 3398 2816 3251 2657 3251 2529 
C 3251 2472 3277 2434 3328 2376 
C 3424 2268 3546 2096 3546 1797 
C 3546 1567 3405 1204 3302 1007 
C 3123 656 2829 357 2496 357 
C 2093 357 1939 615 1869 975 
C 1939 1143 2086 1560 2086 1728 
C 2086 1798 2061 1856 1978 1856 
C 1933 1856 1882 1831 1850 1779 
C 1760 1638 1677 1129 1683 994 
C 1562 756 1216 357 806 357 
C 378 357 262 733 262 1096 
C 262 1758 678 2338 794 2497 
C 858 2593 902 2657 902 2669 
C 902 2714 877 2784 819 2784 
C 717 2784 685 2701 634 2625 
C 307 2121 77 1414 77 803 
C 77 408 224 -64 704 -64 
C 1235 -64 1568 391 1702 634 
C 1754 275 1946 -64 2413 -64 
C 2899 -64 3206 363 3437 879 
C 3603 1249 3802 2045 3802 2395 
z
" transform="scale(0.015625)"/>
      </defs>
      <use xlink:href="#CMMI12-21" transform="scale(0.996264)"/>
     </g>
    </g>
   </g>
   <g id="matplotlib.axis_2">
    <g id="ytick_1">
     <g id="line2d_11">
      <path d="M 90.844507 488.569924 
L 704.88 488.569924 
" clip-path="url(#p2c90815dd0)" style="fill: none; stroke: #b0b0b0; stroke-opacity: 0.3; stroke-width: 0.8; stroke-linecap: square"/>
     </g>
     <g id="line2d_12">
      <defs>
       <path id="md3839942c1" d="M 0 0 
L -3.5 0 
" style="stroke: #000000; stroke-width: 0.8"/>
      </defs>
      <g>
       <use xlink:href="#md3839942c1" x="90.844507" y="488.569924" style="stroke: #000000; stroke-width: 0.8"/>
      </g>
     </g>
     <g id="text_7">
      <!-- $\mathdefault{−0.0015}$ -->
      <g transform="translate(35.060224 493.412863) scale(0.14 -0.14)">
       <defs>
        <path id="CMMI12-3a" d="M 1178 307 
C 1178 492 1024 619 870 619 
C 685 619 557 466 557 313 
C 557 128 710 0 864 0 
C 1050 0 1178 153 1178 307 
z
" transform="scale(0.015625)"/>
        <path id="CMR17-31" d="M 1702 4058 
C 1702 4192 1696 4192 1606 4192 
C 1357 3916 979 3827 621 3827 
C 602 3827 570 3827 563 3808 
C 557 3795 557 3782 557 3648 
C 755 3648 1088 3686 1344 3839 
L 1344 461 
C 1344 236 1331 160 781 160 
L 589 160 
L 589 0 
C 896 0 1216 0 1523 0 
C 1830 0 2150 0 2458 0 
L 2458 160 
L 2266 160 
C 1715 160 1702 230 1702 458 
L 1702 4058 
z
" transform="scale(0.015625)"/>
        <path id="CMR17-35" d="M 730 3692 
C 794 3666 1056 3584 1325 3584 
C 1920 3584 2246 3911 2432 4100 
C 2432 4157 2432 4192 2394 4192 
C 2387 4192 2374 4192 2323 4163 
C 2099 4058 1837 3973 1517 3973 
C 1325 3973 1037 3999 723 4139 
C 653 4171 640 4171 634 4171 
C 602 4171 595 4164 595 4037 
L 595 2203 
C 595 2089 595 2057 659 2057 
C 691 2057 704 2070 736 2114 
C 941 2401 1222 2522 1542 2522 
C 1766 2522 2246 2382 2246 1289 
C 2246 1085 2246 715 2054 421 
C 1894 159 1645 25 1370 25 
C 947 25 518 320 403 814 
C 429 807 480 795 506 795 
C 589 795 749 840 749 1038 
C 749 1210 627 1280 506 1280 
C 358 1280 262 1190 262 1011 
C 262 454 704 -128 1382 -128 
C 2042 -128 2669 440 2669 1264 
C 2669 2030 2170 2624 1549 2624 
C 1222 2624 947 2503 730 2274 
L 730 3692 
z
" transform="scale(0.015625)"/>
       </defs>
       <use xlink:href="#CMSY10-0" transform="scale(0.996264)"/>
       <use xlink:href="#CMR17-30" transform="translate(77.487468 0) scale(0.996264)"/>
       <use xlink:href="#CMMI12-3a" transform="translate(123.177945 0) scale(0.996264)"/>
       <use xlink:href="#CMR17-30" transform="translate(150.275122 0) scale(0.996264)"/>
       <use xlink:href="#CMR17-30" transform="translate(195.965599 0) scale(0.996264)"/>
       <use xlink:href="#CMR17-31" transform="translate(241.656076 0) scale(0.996264)"/>
       <use xlink:href="#CMR17-35" transform="translate(287.346553 0) scale(0.996264)"/>
      </g>
     </g>
    </g>
    <g id="ytick_2">
     <g id="line2d_13">
      <path d="M 90.844507 387.928411 
L 704.88 387.928411 
" clip-path="url(#p2c90815dd0)" style="fill: none; stroke: #b0b0b0; stroke-opacity: 0.3; stroke-width: 0.8; stroke-linecap: square"/>
     </g>
     <g id="line2d_14">
      <g>
       <use xlink:href="#md3839942c1" x="90.844507" y="387.928411" style="stroke: #000000; stroke-width: 0.8"/>
      </g>
     </g>
     <g id="text_8">
      <!-- $\mathdefault{−0.0010}$ -->
      <g transform="translate(35.060224 392.77135) scale(0.14 -0.14)">
       <use xlink:href="#CMSY10-0" transform="scale(0.996264)"/>
       <use xlink:href="#CMR17-30" transform="translate(77.487468 0) scale(0.996264)"/>
       <use xlink:href="#CMMI12-3a" transform="translate(123.177945 0) scale(0.996264)"/>
       <use xlink:href="#CMR17-30" transform="translate(150.275122 0) scale(0.996264)"/>
       <use xlink:href="#CMR17-30" transform="translate(195.965599 0) scale(0.996264)"/>
       <use xlink:href="#CMR17-31" transform="translate(241.656076 0) scale(0.996264)"/>
       <use xlink:href="#CMR17-30" transform="translate(287.346553 0) scale(0.996264)"/>
      </g>
     </g>
    </g>
    <g id="ytick_3">
     <g id="line2d_15">
      <path d="M 90.844507 287.286898 
L 704.88 287.286898 
" clip-path="url(#p2c90815dd0)" style="fill: none; stroke: #b0b0b0; stroke-opacity: 0.3; stroke-width: 0.8; stroke-linecap: square"/>
     </g>
     <g id="line2d_16">
      <g>
       <use xlink:href="#md3839942c1" x="90.844507" y="287.286898" style="stroke: #000000; stroke-width: 0.8"/>
      </g>
     </g>
     <g id="text_9">
      <!-- $\mathdefault{−0.0005}$ -->
      <g transform="translate(35.060224 292.129837) scale(0.14 -0.14)">
       <use xlink:href="#CMSY10-0" transform="scale(0.996264)"/>
       <use xlink:href="#CMR17-30" transform="translate(77.487468 0) scale(0.996264)"/>
       <use xlink:href="#CMMI12-3a" transform="translate(123.177945 0) scale(0.996264)"/>
       <use xlink:href="#CMR17-30" transform="translate(150.275122 0) scale(0.996264)"/>
       <use xlink:href="#CMR17-30" transform="translate(195.965599 0) scale(0.996264)"/>
       <use xlink:href="#CMR17-30" transform="translate(241.656076 0) scale(0.996264)"/>
       <use xlink:href="#CMR17-35" transform="translate(287.346553 0) scale(0.996264)"/>
      </g>
     </g>
    </g>
    <g id="ytick_4">
     <g id="line2d_17">
      <path d="M 90.844507 186.645386 
L 704.88 186.645386 
" clip-path="url(#p2c90815dd0)" style="fill: none; stroke: #b0b0b0; stroke-opacity: 0.3; stroke-width: 0.8; stroke-linecap: square"/>
     </g>
     <g id="line2d_18">
      <g>
       <use xlink:href="#md3839942c1" x="90.844507" y="186.645386" style="stroke: #000000; stroke-width: 0.8"/>
      </g>
     </g>
     <g id="text_10">
      <!-- $\mathdefault{0.0000}$ -->
      <g transform="translate(45.908459 191.488324) scale(0.14 -0.14)">
       <use xlink:href="#CMR17-30" transform="scale(0.996264)"/>
       <use xlink:href="#CMMI12-3a" transform="translate(45.690477 0) scale(0.996264)"/>
       <use xlink:href="#CMR17-30" transform="translate(72.787654 0) scale(0.996264)"/>
       <use xlink:href="#CMR17-30" transform="translate(118.478131 0) scale(0.996264)"/>
       <use xlink:href="#CMR17-30" transform="translate(164.168608 0) scale(0.996264)"/>
       <use xlink:href="#CMR17-30" transform="translate(209.859086 0) scale(0.996264)"/>
      </g>
     </g>
    </g>
    <g id="ytick_5">
     <g id="line2d_19">
      <path d="M 90.844507 86.003873 
L 704.88 86.003873 
" clip-path="url(#p2c90815dd0)" style="fill: none; stroke: #b0b0b0; stroke-opacity: 0.3; stroke-width: 0.8; stroke-linecap: square"/>
     </g>
     <g id="line2d_20">
      <g>
       <use xlink:href="#md3839942c1" x="90.844507" y="86.003873" style="stroke: #000000; stroke-width: 0.8"/>
      </g>
     </g>
     <g id="text_11">
      <!-- $\mathdefault{0.0005}$ -->
      <g transform="translate(45.908459 90.846811) scale(0.14 -0.14)">
       <use xlink:href="#CMR17-30" transform="scale(0.996264)"/>
       <use xlink:href="#CMMI12-3a" transform="translate(45.690477 0) scale(0.996264)"/>
       <use xlink:href="#CMR17-30" transform="translate(72.787654 0) scale(0.996264)"/>
       <use xlink:href="#CMR17-30" transform="translate(118.478131 0) scale(0.996264)"/>
       <use xlink:href="#CMR17-30" transform="translate(164.168608 0) scale(0.996264)"/>
       <use xlink:href="#CMR17-35" transform="translate(209.859086 0) scale(0.996264)"/>
      </g>
     </g>
    </g>
    <g id="text_12">
     <!-- $\rho(\omega)$ -->
     <g transform="translate(27.075168 294.173613) rotate(-90) scale(0.16 -0.16)">
      <defs>
       <path id="CMMI12-1a" d="M 198 -1107 
C 192 -1139 179 -1177 179 -1216 
C 179 -1312 256 -1376 352 -1376 
C 448 -1376 538 -1312 576 -1222 
C 602 -1164 781 -397 986 390 
C 1114 70 1350 -64 1600 -64 
C 2323 -64 3142 830 3142 1795 
C 3142 2478 2726 2816 2285 2816 
C 1722 2816 1037 2235 826 1385 
L 198 -1107 
z
M 1594 64 
C 1158 64 1050 569 1050 645 
C 1050 684 1210 1295 1229 1391 
C 1555 2670 2182 2670 2278 2670 
C 2566 2670 2726 2410 2726 2036 
C 2726 1712 2554 1084 2445 819 
C 2253 381 1920 64 1594 64 
z
" transform="scale(0.015625)"/>
       <path id="CMR17-28" d="M 1958 -1561 
C 1958 -1555 1958 -1542 1939 -1523 
C 1645 -1224 858 -407 858 1581 
C 858 3569 1632 4379 1946 4697 
C 1946 4704 1958 4717 1958 4736 
C 1958 4755 1939 4768 1914 4768 
C 1843 4768 1299 4296 986 3594 
C 666 2887 576 2199 576 1588 
C 576 1128 621 351 1005 -471 
C 1312 -1135 1837 -1600 1914 -1600 
C 1946 -1600 1958 -1587 1958 -1561 
z
" transform="scale(0.015625)"/>
       <path id="CMR17-29" d="M 1683 1581 
C 1683 2040 1638 2817 1254 3639 
C 947 4303 422 4768 346 4768 
C 326 4768 301 4761 301 4729 
C 301 4717 307 4710 314 4697 
C 621 4378 1402 3568 1402 1584 
C 1402 -407 627 -1217 314 -1537 
C 307 -1549 301 -1556 301 -1568 
C 301 -1600 326 -1600 346 -1600 
C 416 -1600 960 -1128 1274 -426 
C 1594 281 1683 969 1683 1581 
z
" transform="scale(0.015625)"/>
      </defs>
      <use xlink:href="#CMMI12-1a" transform="scale(0.996264)"/>
      <use xlink:href="#CMR17-28" transform="translate(50.314373 0) scale(0.996264)"/>
      <use xlink:href="#CMMI12-21" transform="translate(85.595141 0) scale(0.996264)"/>
      <use xlink:href="#CMR17-29" transform="translate(149.913487 0) scale(0.996264)"/>
     </g>
    </g>
   </g>
   <g id="line2d_21">
    <path d="M 90.844507 170.203258 
L 100.67399 168.569703 
L 109.581958 166.870411 
L 117.875584 165.065627 
L 125.554868 163.168607 
L 132.619808 161.198745 
L 139.377578 159.080332 
L 145.521004 156.925232 
L 151.35726 154.646027 
L 156.886344 152.249566 
L 162.108256 149.746347 
L 167.022998 147.1509 
L 171.937739 144.295395 
L 176.545309 141.355245 
L 180.845708 138.356708 
L 185.146106 135.087984 
L 189.446505 131.523654 
L 193.439732 127.926264 
L 197.432959 124.030302 
L 201.426187 119.815793 
L 205.419414 115.265377 
L 209.412641 110.366632 
L 213.405869 105.115482 
L 217.706267 99.077261 
L 222.313837 92.210722 
L 228.457264 82.601649 
L 236.136547 70.624131 
L 239.208261 66.227632 
L 241.665631 63.065734 
L 243.815831 60.671336 
L 245.658859 58.981103 
L 247.194715 57.888131 
L 248.423401 57.257404 
L 249.652086 56.874841 
L 250.880771 56.772163 
L 251.802285 56.899305 
L 252.723799 57.218405 
L 253.645313 57.745579 
L 254.566827 58.497708 
L 255.488341 59.492407 
L 256.409855 60.747988 
L 257.638541 62.860757 
L 258.867226 65.517554 
L 260.095911 68.766274 
L 261.324597 72.655742 
L 262.553282 77.23508 
L 263.781967 82.55295 
L 265.317824 90.310662 
L 266.85368 99.382657 
L 268.389537 109.845736 
L 269.925394 121.762488 
L 271.768422 138.041056 
L 273.61145 156.502303 
L 275.454478 177.11068 
L 277.604677 203.714006 
L 280.062048 237.079401 
L 283.133761 282.070133 
L 290.505873 391.663624 
L 292.656072 419.939279 
L 294.4991 441.533464 
L 296.034957 457.29646 
L 297.570814 470.795421 
L 298.799499 479.857028 
L 300.028184 487.317635 
L 300.949698 491.84722 
L 301.871212 495.462178 
L 302.792726 498.170276 
L 303.407069 499.479133 
L 304.021412 500.397895 
L 304.635754 500.934148 
L 305.250097 501.096685 
L 305.86444 500.895408 
L 306.478782 500.341228 
L 307.093125 499.44596 
L 307.707468 498.222217 
L 308.628982 495.799986 
L 309.550496 492.716047 
L 310.779181 487.660537 
L 312.007866 481.63772 
L 313.543723 472.935667 
L 315.386751 461.083851 
L 317.844122 443.527212 
L 321.223006 417.51119 
L 328.287947 362.769535 
L 331.35966 340.763224 
L 334.124202 322.413496 
L 336.888744 305.578179 
L 339.346115 291.915941 
L 341.803486 279.462813 
L 344.260856 268.174184 
L 346.718227 257.987714 
L 349.175597 248.830719 
L 351.632968 240.625647 
L 353.783167 234.165366 
L 355.933367 228.32229 
L 358.083566 223.046943 
L 360.233765 218.292507 
L 362.383965 214.0152 
L 364.534164 210.174479 
L 366.684363 206.733109 
L 368.834563 203.657139 
L 371.291933 200.549862 
L 373.749304 197.838754 
L 376.206675 195.487733 
L 378.664045 193.465336 
L 381.121416 191.7444 
L 383.578787 190.301769 
L 386.036157 189.11801 
L 388.493528 188.177175 
L 390.950899 187.46659 
L 393.408269 186.976689 
L 395.86564 186.700879 
L 398.323011 186.635448 
L 400.780381 186.779517 
L 403.237752 187.135023 
L 405.695123 187.70675 
L 408.152493 188.502394 
L 410.609864 189.532669 
L 413.067235 190.811454 
L 415.524605 192.355978 
L 417.981976 194.187039 
L 420.439347 196.329263 
L 422.589546 198.481445 
L 424.739745 200.915814 
L 426.889944 203.657139 
L 429.040144 206.733109 
L 431.190343 210.174479 
L 433.340542 214.0152 
L 435.490742 218.292507 
L 437.640941 223.046943 
L 439.79114 228.32229 
L 441.94134 234.165366 
L 444.091539 240.625647 
L 446.241738 247.75464 
L 448.391938 255.604933 
L 450.542137 264.228841 
L 452.999508 275.096159 
L 455.456878 287.106235 
L 457.914249 300.311328 
L 460.37162 314.740232 
L 463.136162 332.426513 
L 465.900704 351.569723 
L 469.279588 376.65636 
L 474.501501 417.51119 
L 478.494728 448.063517 
L 480.952099 465.183102 
L 482.795127 476.559586 
L 484.330984 484.762385 
L 485.559669 490.316836 
L 486.788354 494.843124 
L 487.709868 497.491302 
L 488.631382 499.44596 
L 489.245725 500.341228 
L 489.860068 500.895408 
L 490.47441 501.096685 
L 491.088753 500.934148 
L 491.703096 500.397895 
L 492.317438 499.479133 
L 492.931781 498.170276 
L 493.853295 495.462178 
L 494.774809 491.84722 
L 495.696323 487.317635 
L 496.925008 479.857028 
L 498.153694 470.795421 
L 499.382379 460.183299 
L 500.918236 444.857576 
L 502.761264 423.723814 
L 504.911463 395.875911 
L 507.368833 360.925651 
L 511.976403 291.344391 
L 515.662459 237.079401 
L 518.11983 203.714006 
L 520.270029 177.11068 
L 522.420229 153.274484 
L 524.263257 135.176426 
L 526.106285 119.260439 
L 527.949313 105.489195 
L 529.485169 95.590961 
L 531.021026 87.054538 
L 532.556883 79.7987 
L 534.092739 73.733986 
L 535.321425 69.676652 
L 536.55011 66.272345 
L 537.778795 63.472104 
L 539.007481 61.227748 
L 540.236166 59.492407 
L 541.464851 58.220931 
L 542.386365 57.545708 
L 543.307879 57.089731 
L 544.229393 56.83637 
L 545.150907 56.769766 
L 546.379593 56.945523 
L 547.608278 57.393006 
L 548.836963 58.081102 
L 550.37282 59.236073 
L 551.908677 60.671336 
L 553.751705 62.699787 
L 555.901904 65.401855 
L 558.666446 69.265107 
L 562.352502 74.8437 
L 578.01824 99.077261 
L 582.318639 105.115482 
L 586.311866 110.366632 
L 590.305093 115.265377 
L 594.29832 119.815793 
L 598.291548 124.030302 
L 602.284775 127.926264 
L 606.278002 131.523654 
L 610.578401 135.087984 
L 614.8788 138.356708 
L 619.179198 141.355245 
L 623.786768 144.295395 
L 628.394338 146.980349 
L 633.30908 149.591219 
L 638.530992 152.109052 
L 644.060076 154.519223 
L 649.896332 156.811174 
L 656.039758 158.978029 
L 662.490356 161.016143 
L 669.555297 163.006354 
L 676.927409 164.850174 
L 684.913863 166.617494 
L 693.514661 168.292652 
L 703.036972 169.914286 
L 704.88 170.203258 
L 704.88 170.203258 
" clip-path="url(#p2c90815dd0)" style="fill: none; stroke: #ff0000; stroke-linecap: square"/>
   </g>
   <g id="patch_3">
    <path d="M 90.844507 523.313031 
L 90.844507 34.55342 
" style="fill: none; stroke: #000000; stroke-width: 0.8; stroke-linejoin: miter; stroke-linecap: square"/>
   </g>
   <g id="patch_4">
    <path d="M 704.88 523.313031 
L 704.88 34.55342 
" style="fill: none; stroke: #000000; stroke-width: 0.8; stroke-linejoin: miter; stroke-linecap: square"/>
   </g>
   <g id="patch_5">
    <path d="M 90.844507 523.313031 
L 704.88 523.313031 
" style="fill: none; stroke: #000000; stroke-width: 0.8; stroke-linejoin: miter; stroke-linecap: square"/>
   </g>
   <g id="patch_6">
    <path d="M 90.844507 34.55342 
L 704.88 34.55342 
" style="fill: none; stroke: #000000; stroke-width: 0.8; stroke-linejoin: miter; stroke-linecap: square"/>
   </g>
   <g id="text_13">
    <!-- $\rho(\omega)$ con $t = 2.0$ -->
    <g transform="translate(338.17564 28.55342) scale(0.18 -0.18)">
     <defs>
      <path id="CMR17-63" d="M 2234 2240 
C 2112 2240 1933 2240 1933 2017 
C 1933 1838 2080 1787 2163 1787 
C 2208 1787 2394 1807 2394 2024 
C 2394 2467 1958 2803 1466 2803 
C 787 2803 211 2178 211 1363 
C 211 516 813 -64 1466 -64 
C 2259 -64 2458 677 2458 748 
C 2458 774 2451 793 2406 793 
C 2362 793 2355 787 2330 703 
C 2163 180 1798 51 1523 51 
C 1114 51 621 427 621 1369 
C 621 2338 1094 2688 1472 2688 
C 1722 2688 2093 2573 2234 2240 
z
" transform="scale(0.015625)"/>
      <path id="CMR17-6f" d="M 2758 1356 
C 2758 2176 2163 2816 1466 2816 
C 768 2816 173 2176 173 1356 
C 173 551 768 -64 1466 -64 
C 2163 -64 2758 551 2758 1356 
z
M 1466 51 
C 1165 51 909 230 762 480 
C 602 767 582 1126 582 1408 
C 582 1677 595 2010 762 2298 
C 890 2509 1139 2714 1466 2714 
C 1754 2714 1997 2554 2150 2330 
C 2349 2029 2349 1607 2349 1408 
C 2349 1158 2336 775 2163 467 
C 1984 173 1709 51 1466 51 
z
" transform="scale(0.015625)"/>
      <path id="CMR17-6e" d="M 2656 1933 
C 2656 2259 2592 2790 1837 2790 
C 1331 2790 1069 2400 973 2144 
L 966 2144 
L 966 2790 
L 211 2720 
L 211 2554 
C 589 2554 646 2515 646 2208 
L 646 428 
C 646 184 621 153 211 153 
L 211 -13 
C 365 0 646 0 813 0 
C 979 0 1267 0 1421 -13 
L 1421 153 
C 1011 153 986 178 986 428 
L 986 1658 
C 986 2247 1344 2688 1792 2688 
C 2266 2688 2317 2266 2317 1958 
L 2317 428 
C 2317 184 2291 153 1882 153 
L 1882 -13 
C 2035 0 2317 0 2483 0 
C 2650 0 2938 0 3091 -13 
L 3091 153 
C 2682 153 2656 178 2656 428 
L 2656 1933 
z
" transform="scale(0.015625)"/>
      <path id="CMMI12-74" d="M 1286 2566 
L 1875 2566 
C 1997 2566 2061 2566 2061 2681 
C 2061 2752 2022 2752 1894 2752 
L 1331 2752 
L 1568 3692 
C 1594 3781 1594 3794 1594 3840 
C 1594 3943 1510 4000 1427 4000 
C 1376 4000 1229 3981 1178 3775 
L 928 2752 
L 326 2752 
C 198 2752 141 2752 141 2630 
C 141 2566 186 2566 307 2566 
L 877 2566 
L 454 881 
C 403 658 384 594 384 511 
C 384 211 595 -64 954 -64 
C 1600 -64 1946 868 1946 912 
C 1946 951 1920 970 1882 970 
C 1869 970 1843 970 1830 944 
C 1824 938 1818 931 1773 829 
C 1638 511 1344 64 973 64 
C 781 64 768 224 768 364 
C 768 370 768 492 787 568 
L 1286 2566 
z
" transform="scale(0.015625)"/>
      <path id="CMR17-3d" d="M 4115 2017 
C 4211 2017 4307 2017 4307 2125 
C 4307 2240 4198 2240 4090 2240 
L 512 2240 
C 403 2240 294 2240 294 2125 
C 294 2017 390 2017 486 2017 
L 4115 2017 
z
M 4090 896 
C 4198 896 4307 896 4307 1011 
C 4307 1119 4211 1119 4115 1119 
L 486 1119 
C 390 1119 294 1119 294 1011 
C 294 896 403 896 512 896 
L 4090 896 
z
" transform="scale(0.015625)"/>
     </defs>
     <use xlink:href="#CMMI12-1a" transform="scale(0.996264)"/>
     <use xlink:href="#CMR17-28" transform="translate(50.314373 0) scale(0.996264)"/>
     <use xlink:href="#CMMI12-21" transform="translate(85.595141 0) scale(0.996264)"/>
     <use xlink:href="#CMR17-29" transform="translate(149.913487 0) scale(0.996264)"/>
     <use xlink:href="#CMR17-63" transform="translate(215.270221 0) scale(0.996264)"/>
     <use xlink:href="#CMR17-6f" transform="translate(255.755881 0) scale(0.996264)"/>
     <use xlink:href="#CMR17-6e" transform="translate(301.446358 0) scale(0.996264)"/>
     <use xlink:href="#CMMI12-74" transform="translate(382.417695 0) scale(0.996264)"/>
     <use xlink:href="#CMR17-3d" transform="translate(445.318033 0) scale(0.996264)"/>
     <use xlink:href="#CMR17-32" transform="translate(544.706831 0) scale(0.996264)"/>
     <use xlink:href="#CMMI12-3a" transform="translate(590.397308 0) scale(0.996264)"/>
     <use xlink:href="#CMR17-30" transform="translate(617.494485 0) scale(0.996264)"/>
    </g>
   </g>
  </g>
 </g>
 <defs>
  <clipPath id="p2c90815dd0">
   <rect x="90.844507" y="34.55342" width="614.035493" height="488.759611"/>
  </clipPath>
 </defs>
</svg>
