<?xml version="1.0" encoding="utf-8" standalone="no"?>
<!DOCTYPE svg PUBLIC "-//W3C//DTD SVG 1.1//EN"
  "http://www.w3.org/Graphics/SVG/1.1/DTD/svg11.dtd">
<svg xmlns:xlink="http://www.w3.org/1999/xlink" width="720pt" height="576pt" viewBox="0 0 720 576" xmlns="http://www.w3.org/2000/svg" version="1.1">
 <metadata>
  <rdf:RDF xmlns:dc="http://purl.org/dc/elements/1.1/" xmlns:cc="http://creativecommons.org/ns#" xmlns:rdf="http://www.w3.org/1999/02/22-rdf-syntax-ns#">
   <cc:Work>
    <dc:type rdf:resource="http://purl.org/dc/dcmitype/StillImage"/>
    <dc:date>2025-07-19T00:48:58.778487</dc:date>
    <dc:format>image/svg+xml</dc:format>
    <dc:creator>
     <cc:Agent>
      <dc:title>Matplotlib v3.9.2, https://matplotlib.org/</dc:title>
     </cc:Agent>
    </dc:creator>
   </cc:Work>
  </rdf:RDF>
 </metadata>
 <defs>
  <style type="text/css">*{stroke-linejoin: round; stroke-linecap: butt}</style>
 </defs>
 <g id="figure_1">
  <g id="patch_1">
   <path d="M 0 576 
L 720 576 
L 720 0 
L 0 0 
z
" style="fill: #ffffff"/>
  </g>
  <g id="axes_1">
   <g id="patch_2">
    <path d="M 84.693994 500.500956 
L 696.24 500.500956 
L 696.24 49.617867 
L 84.693994 49.617867 
z
" style="fill: #ffffff"/>
   </g>
   <g id="matplotlib.axis_1">
    <g id="xtick_1">
     <g id="line2d_1">
      <path d="M 135.656161 500.500956 
L 135.656161 49.617867 
" clip-path="url(#pb6106fe9af)" style="fill: none; stroke: #b0b0b0; stroke-opacity: 0.3; stroke-width: 0.8; stroke-linecap: square"/>
     </g>
     <g id="line2d_2">
      <defs>
       <path id="mc8fd78f58e" d="M 0 0 
L 0 3.5 
" style="stroke: #000000; stroke-width: 0.8"/>
      </defs>
      <g>
       <use xlink:href="#mc8fd78f58e" x="135.656161" y="500.500956" style="stroke: #000000; stroke-width: 0.8"/>
      </g>
     </g>
     <g id="text_1">
      <!-- $\mathdefault{−1.0}$ -->
      <g transform="translate(114.09995 522.72165) scale(0.22 -0.22)">
       <defs>
        <path id="CMSY10-0" d="M 4218 1472 
C 4326 1472 4442 1472 4442 1600 
C 4442 1728 4326 1728 4218 1728 
L 755 1728 
C 646 1728 531 1728 531 1600 
C 531 1472 646 1472 755 1472 
L 4218 1472 
z
" transform="scale(0.015625)"/>
        <path id="CMR17-31" d="M 1702 4058 
C 1702 4192 1696 4192 1606 4192 
C 1357 3916 979 3827 621 3827 
C 602 3827 570 3827 563 3808 
C 557 3795 557 3782 557 3648 
C 755 3648 1088 3686 1344 3839 
L 1344 461 
C 1344 236 1331 160 781 160 
L 589 160 
L 589 0 
C 896 0 1216 0 1523 0 
C 1830 0 2150 0 2458 0 
L 2458 160 
L 2266 160 
C 1715 160 1702 230 1702 458 
L 1702 4058 
z
" transform="scale(0.015625)"/>
        <path id="CMMI12-3a" d="M 1178 307 
C 1178 492 1024 619 870 619 
C 685 619 557 466 557 313 
C 557 128 710 0 864 0 
C 1050 0 1178 153 1178 307 
z
" transform="scale(0.015625)"/>
        <path id="CMR17-30" d="M 2688 2025 
C 2688 2416 2682 3080 2413 3591 
C 2176 4039 1798 4198 1466 4198 
C 1158 4198 768 4058 525 3597 
C 269 3118 243 2524 243 2025 
C 243 1661 250 1106 448 619 
C 723 -39 1216 -128 1466 -128 
C 1760 -128 2208 -7 2470 600 
C 2662 1042 2688 1559 2688 2025 
z
M 1466 -26 
C 1056 -26 813 325 723 812 
C 653 1188 653 1738 653 2096 
C 653 2588 653 2997 736 3387 
C 858 3929 1216 4096 1466 4096 
C 1728 4096 2067 3923 2189 3400 
C 2272 3036 2278 2607 2278 2096 
C 2278 1680 2278 1169 2202 792 
C 2067 95 1690 -26 1466 -26 
z
" transform="scale(0.015625)"/>
       </defs>
       <use xlink:href="#CMSY10-0" transform="scale(0.996264)"/>
       <use xlink:href="#CMR17-31" transform="translate(77.487468 0) scale(0.996264)"/>
       <use xlink:href="#CMMI12-3a" transform="translate(123.177945 0) scale(0.996264)"/>
       <use xlink:href="#CMR17-30" transform="translate(150.275122 0) scale(0.996264)"/>
      </g>
     </g>
    </g>
    <g id="xtick_2">
     <g id="line2d_3">
      <path d="M 263.061579 500.500956 
L 263.061579 49.617867 
" clip-path="url(#pb6106fe9af)" style="fill: none; stroke: #b0b0b0; stroke-opacity: 0.3; stroke-width: 0.8; stroke-linecap: square"/>
     </g>
     <g id="line2d_4">
      <g>
       <use xlink:href="#mc8fd78f58e" x="263.061579" y="500.500956" style="stroke: #000000; stroke-width: 0.8"/>
      </g>
     </g>
     <g id="text_2">
      <!-- $\mathdefault{−0.5}$ -->
      <g transform="translate(241.505368 522.72165) scale(0.22 -0.22)">
       <defs>
        <path id="CMR17-35" d="M 730 3692 
C 794 3666 1056 3584 1325 3584 
C 1920 3584 2246 3911 2432 4100 
C 2432 4157 2432 4192 2394 4192 
C 2387 4192 2374 4192 2323 4163 
C 2099 4058 1837 3973 1517 3973 
C 1325 3973 1037 3999 723 4139 
C 653 4171 640 4171 634 4171 
C 602 4171 595 4164 595 4037 
L 595 2203 
C 595 2089 595 2057 659 2057 
C 691 2057 704 2070 736 2114 
C 941 2401 1222 2522 1542 2522 
C 1766 2522 2246 2382 2246 1289 
C 2246 1085 2246 715 2054 421 
C 1894 159 1645 25 1370 25 
C 947 25 518 320 403 814 
C 429 807 480 795 506 795 
C 589 795 749 840 749 1038 
C 749 1210 627 1280 506 1280 
C 358 1280 262 1190 262 1011 
C 262 454 704 -128 1382 -128 
C 2042 -128 2669 440 2669 1264 
C 2669 2030 2170 2624 1549 2624 
C 1222 2624 947 2503 730 2274 
L 730 3692 
z
" transform="scale(0.015625)"/>
       </defs>
       <use xlink:href="#CMSY10-0" transform="scale(0.996264)"/>
       <use xlink:href="#CMR17-30" transform="translate(77.487468 0) scale(0.996264)"/>
       <use xlink:href="#CMMI12-3a" transform="translate(123.177945 0) scale(0.996264)"/>
       <use xlink:href="#CMR17-35" transform="translate(150.275122 0) scale(0.996264)"/>
      </g>
     </g>
    </g>
    <g id="xtick_3">
     <g id="line2d_5">
      <path d="M 390.466997 500.500956 
L 390.466997 49.617867 
" clip-path="url(#pb6106fe9af)" style="fill: none; stroke: #b0b0b0; stroke-opacity: 0.3; stroke-width: 0.8; stroke-linecap: square"/>
     </g>
     <g id="line2d_6">
      <g>
       <use xlink:href="#mc8fd78f58e" x="390.466997" y="500.500956" style="stroke: #000000; stroke-width: 0.8"/>
      </g>
     </g>
     <g id="text_3">
      <!-- $\mathdefault{0.0}$ -->
      <g transform="translate(377.434402 522.72165) scale(0.22 -0.22)">
       <use xlink:href="#CMR17-30" transform="scale(0.996264)"/>
       <use xlink:href="#CMMI12-3a" transform="translate(45.690477 0) scale(0.996264)"/>
       <use xlink:href="#CMR17-30" transform="translate(72.787654 0) scale(0.996264)"/>
      </g>
     </g>
    </g>
    <g id="xtick_4">
     <g id="line2d_7">
      <path d="M 517.872415 500.500956 
L 517.872415 49.617867 
" clip-path="url(#pb6106fe9af)" style="fill: none; stroke: #b0b0b0; stroke-opacity: 0.3; stroke-width: 0.8; stroke-linecap: square"/>
     </g>
     <g id="line2d_8">
      <g>
       <use xlink:href="#mc8fd78f58e" x="517.872415" y="500.500956" style="stroke: #000000; stroke-width: 0.8"/>
      </g>
     </g>
     <g id="text_4">
      <!-- $\mathdefault{0.5}$ -->
      <g transform="translate(504.83982 522.72165) scale(0.22 -0.22)">
       <use xlink:href="#CMR17-30" transform="scale(0.996264)"/>
       <use xlink:href="#CMMI12-3a" transform="translate(45.690477 0) scale(0.996264)"/>
       <use xlink:href="#CMR17-35" transform="translate(72.787654 0) scale(0.996264)"/>
      </g>
     </g>
    </g>
    <g id="xtick_5">
     <g id="line2d_9">
      <path d="M 645.277833 500.500956 
L 645.277833 49.617867 
" clip-path="url(#pb6106fe9af)" style="fill: none; stroke: #b0b0b0; stroke-opacity: 0.3; stroke-width: 0.8; stroke-linecap: square"/>
     </g>
     <g id="line2d_10">
      <g>
       <use xlink:href="#mc8fd78f58e" x="645.277833" y="500.500956" style="stroke: #000000; stroke-width: 0.8"/>
      </g>
     </g>
     <g id="text_5">
      <!-- $\mathdefault{1.0}$ -->
      <g transform="translate(632.245238 522.72165) scale(0.22 -0.22)">
       <use xlink:href="#CMR17-31" transform="scale(0.996264)"/>
       <use xlink:href="#CMMI12-3a" transform="translate(45.690477 0) scale(0.996264)"/>
       <use xlink:href="#CMR17-30" transform="translate(72.787654 0) scale(0.996264)"/>
      </g>
     </g>
    </g>
    <g id="text_6">
     <!-- $\omega$ -->
     <g transform="translate(383.17775 547.589243) scale(0.24 -0.24)">
      <defs>
       <path id="CMMI12-21" d="M 3802 2395 
C 3802 2580 3750 2816 3526 2816 
C 3398 2816 3251 2657 3251 2529 
C 3251 2472 3277 2434 3328 2376 
C 3424 2268 3546 2096 3546 1797 
C 3546 1567 3405 1204 3302 1007 
C 3123 656 2829 357 2496 357 
C 2093 357 1939 615 1869 975 
C 1939 1143 2086 1560 2086 1728 
C 2086 1798 2061 1856 1978 1856 
C 1933 1856 1882 1831 1850 1779 
C 1760 1638 1677 1129 1683 994 
C 1562 756 1216 357 806 357 
C 378 357 262 733 262 1096 
C 262 1758 678 2338 794 2497 
C 858 2593 902 2657 902 2669 
C 902 2714 877 2784 819 2784 
C 717 2784 685 2701 634 2625 
C 307 2121 77 1414 77 803 
C 77 408 224 -64 704 -64 
C 1235 -64 1568 391 1702 634 
C 1754 275 1946 -64 2413 -64 
C 2899 -64 3206 363 3437 879 
C 3603 1249 3802 2045 3802 2395 
z
" transform="scale(0.015625)"/>
      </defs>
      <use xlink:href="#CMMI12-21" transform="scale(0.996264)"/>
     </g>
    </g>
   </g>
   <g id="matplotlib.axis_2">
    <g id="ytick_1">
     <g id="line2d_11">
      <path d="M 84.693994 480.015496 
L 696.24 480.015496 
" clip-path="url(#pb6106fe9af)" style="fill: none; stroke: #b0b0b0; stroke-opacity: 0.3; stroke-width: 0.8; stroke-linecap: square"/>
     </g>
     <g id="line2d_12">
      <defs>
       <path id="mab09bc6223" d="M 0 0 
L -3.5 0 
" style="stroke: #000000; stroke-width: 0.8"/>
      </defs>
      <g>
       <use xlink:href="#mab09bc6223" x="84.693994" y="480.015496" style="stroke: #000000; stroke-width: 0.8"/>
      </g>
     </g>
     <g id="text_7">
      <!-- $\mathdefault{0.0}$ -->
      <g transform="translate(51.628805 487.625843) scale(0.22 -0.22)">
       <use xlink:href="#CMR17-30" transform="scale(0.996264)"/>
       <use xlink:href="#CMMI12-3a" transform="translate(45.690477 0) scale(0.996264)"/>
       <use xlink:href="#CMR17-30" transform="translate(72.787654 0) scale(0.996264)"/>
      </g>
     </g>
    </g>
    <g id="ytick_2">
     <g id="line2d_13">
      <path d="M 84.693994 386.344386 
L 696.24 386.344386 
" clip-path="url(#pb6106fe9af)" style="fill: none; stroke: #b0b0b0; stroke-opacity: 0.3; stroke-width: 0.8; stroke-linecap: square"/>
     </g>
     <g id="line2d_14">
      <g>
       <use xlink:href="#mab09bc6223" x="84.693994" y="386.344386" style="stroke: #000000; stroke-width: 0.8"/>
      </g>
     </g>
     <g id="text_8">
      <!-- $\mathdefault{0.5}$ -->
      <g transform="translate(51.628805 393.954733) scale(0.22 -0.22)">
       <use xlink:href="#CMR17-30" transform="scale(0.996264)"/>
       <use xlink:href="#CMMI12-3a" transform="translate(45.690477 0) scale(0.996264)"/>
       <use xlink:href="#CMR17-35" transform="translate(72.787654 0) scale(0.996264)"/>
      </g>
     </g>
    </g>
    <g id="ytick_3">
     <g id="line2d_15">
      <path d="M 84.693994 292.673277 
L 696.24 292.673277 
" clip-path="url(#pb6106fe9af)" style="fill: none; stroke: #b0b0b0; stroke-opacity: 0.3; stroke-width: 0.8; stroke-linecap: square"/>
     </g>
     <g id="line2d_16">
      <g>
       <use xlink:href="#mab09bc6223" x="84.693994" y="292.673277" style="stroke: #000000; stroke-width: 0.8"/>
      </g>
     </g>
     <g id="text_9">
      <!-- $\mathdefault{1.0}$ -->
      <g transform="translate(51.628805 300.283623) scale(0.22 -0.22)">
       <use xlink:href="#CMR17-31" transform="scale(0.996264)"/>
       <use xlink:href="#CMMI12-3a" transform="translate(45.690477 0) scale(0.996264)"/>
       <use xlink:href="#CMR17-30" transform="translate(72.787654 0) scale(0.996264)"/>
      </g>
     </g>
    </g>
    <g id="ytick_4">
     <g id="line2d_17">
      <path d="M 84.693994 199.002167 
L 696.24 199.002167 
" clip-path="url(#pb6106fe9af)" style="fill: none; stroke: #b0b0b0; stroke-opacity: 0.3; stroke-width: 0.8; stroke-linecap: square"/>
     </g>
     <g id="line2d_18">
      <g>
       <use xlink:href="#mab09bc6223" x="84.693994" y="199.002167" style="stroke: #000000; stroke-width: 0.8"/>
      </g>
     </g>
     <g id="text_10">
      <!-- $\mathdefault{1.5}$ -->
      <g transform="translate(51.628805 206.612514) scale(0.22 -0.22)">
       <use xlink:href="#CMR17-31" transform="scale(0.996264)"/>
       <use xlink:href="#CMMI12-3a" transform="translate(45.690477 0) scale(0.996264)"/>
       <use xlink:href="#CMR17-35" transform="translate(72.787654 0) scale(0.996264)"/>
      </g>
     </g>
    </g>
    <g id="ytick_5">
     <g id="line2d_19">
      <path d="M 84.693994 105.331057 
L 696.24 105.331057 
" clip-path="url(#pb6106fe9af)" style="fill: none; stroke: #b0b0b0; stroke-opacity: 0.3; stroke-width: 0.8; stroke-linecap: square"/>
     </g>
     <g id="line2d_20">
      <g>
       <use xlink:href="#mab09bc6223" x="84.693994" y="105.331057" style="stroke: #000000; stroke-width: 0.8"/>
      </g>
     </g>
     <g id="text_11">
      <!-- $\mathdefault{2.0}$ -->
      <g transform="translate(51.628805 112.941404) scale(0.22 -0.22)">
       <defs>
        <path id="CMR17-32" d="M 2669 989 
L 2554 989 
C 2490 536 2438 459 2413 420 
C 2381 369 1920 369 1830 369 
L 602 369 
C 832 619 1280 1072 1824 1597 
C 2214 1967 2669 2402 2669 3035 
C 2669 3790 2067 4224 1395 4224 
C 691 4224 262 3604 262 3030 
C 262 2780 448 2748 525 2748 
C 589 2748 781 2787 781 3010 
C 781 3207 614 3264 525 3264 
C 486 3264 448 3258 422 3245 
C 544 3790 915 4058 1306 4058 
C 1862 4058 2227 3617 2227 3035 
C 2227 2479 1901 2000 1536 1584 
L 262 146 
L 262 0 
L 2515 0 
L 2669 989 
z
" transform="scale(0.015625)"/>
       </defs>
       <use xlink:href="#CMR17-32" transform="scale(0.996264)"/>
       <use xlink:href="#CMMI12-3a" transform="translate(45.690477 0) scale(0.996264)"/>
       <use xlink:href="#CMR17-30" transform="translate(72.787654 0) scale(0.996264)"/>
      </g>
     </g>
    </g>
    <g id="text_12">
     <!-- $\rho(\omega)$ -->
     <g transform="translate(41.671226 297.282707) rotate(-90) scale(0.24 -0.24)">
      <defs>
       <path id="CMMI12-1a" d="M 198 -1107 
C 192 -1139 179 -1177 179 -1216 
C 179 -1312 256 -1376 352 -1376 
C 448 -1376 538 -1312 576 -1222 
C 602 -1164 781 -397 986 390 
C 1114 70 1350 -64 1600 -64 
C 2323 -64 3142 830 3142 1795 
C 3142 2478 2726 2816 2285 2816 
C 1722 2816 1037 2235 826 1385 
L 198 -1107 
z
M 1594 64 
C 1158 64 1050 569 1050 645 
C 1050 684 1210 1295 1229 1391 
C 1555 2670 2182 2670 2278 2670 
C 2566 2670 2726 2410 2726 2036 
C 2726 1712 2554 1084 2445 819 
C 2253 381 1920 64 1594 64 
z
" transform="scale(0.015625)"/>
       <path id="CMR17-28" d="M 1958 -1561 
C 1958 -1555 1958 -1542 1939 -1523 
C 1645 -1224 858 -407 858 1581 
C 858 3569 1632 4379 1946 4697 
C 1946 4704 1958 4717 1958 4736 
C 1958 4755 1939 4768 1914 4768 
C 1843 4768 1299 4296 986 3594 
C 666 2887 576 2199 576 1588 
C 576 1128 621 351 1005 -471 
C 1312 -1135 1837 -1600 1914 -1600 
C 1946 -1600 1958 -1587 1958 -1561 
z
" transform="scale(0.015625)"/>
       <path id="CMR17-29" d="M 1683 1581 
C 1683 2040 1638 2817 1254 3639 
C 947 4303 422 4768 346 4768 
C 326 4768 301 4761 301 4729 
C 301 4717 307 4710 314 4697 
C 621 4378 1402 3568 1402 1584 
C 1402 -407 627 -1217 314 -1537 
C 307 -1549 301 -1556 301 -1568 
C 301 -1600 326 -1600 346 -1600 
C 416 -1600 960 -1128 1274 -426 
C 1594 281 1683 969 1683 1581 
z
" transform="scale(0.015625)"/>
      </defs>
      <use xlink:href="#CMMI12-1a" transform="scale(0.996264)"/>
      <use xlink:href="#CMR17-28" transform="translate(50.314373 0) scale(0.996264)"/>
      <use xlink:href="#CMMI12-21" transform="translate(85.595141 0) scale(0.996264)"/>
      <use xlink:href="#CMR17-29" transform="translate(149.913487 0) scale(0.996264)"/>
     </g>
    </g>
   </g>
   <g id="line2d_21">
    <path d="M 83.903685 479.855289 
L 190.977773 479.634209 
L 240.690743 479.332072 
L 270.008648 478.945314 
L 289.129021 478.480876 
L 301.875936 477.97638 
L 312.073468 477.364631 
L 319.721617 476.700143 
L 326.095075 475.929468 
L 331.193841 475.095766 
L 335.017916 474.286083 
L 338.84199 473.253035 
L 341.391373 472.39695 
L 343.940756 471.363491 
L 346.490139 470.099885 
L 349.039522 468.532443 
L 351.588905 466.556036 
L 352.863597 465.369032 
L 354.138288 464.017074 
L 355.41298 462.468778 
L 356.687672 460.685203 
L 357.962363 458.617651 
L 359.237055 456.204731 
L 360.511746 453.368378 
L 361.786438 450.008408 
L 363.061129 445.994983 
L 364.335821 441.157992 
L 365.610512 435.27181 
L 366.885204 428.032788 
L 368.159895 419.024704 
L 369.434587 407.662896 
L 370.709278 393.097595 
L 371.98397 374.032906 
L 373.258661 348.360369 
L 374.533353 312.376184 
L 375.808044 259.176037 
L 377.082736 177.100247 
L 378.357427 70.112553 
L 379.632119 103.271201 
L 380.90681 337.941551 
L 382.181502 444.718777 
L 383.456194 467.402823 
L 384.730885 468.405573 
L 387.280268 461.930692 
L 388.55496 459.715037 
L 389.829651 458.623257 
L 391.104343 458.623257 
L 392.379034 459.715037 
L 393.653726 461.930692 
L 396.203109 468.405573 
L 397.4778 467.402823 
L 398.752492 444.718777 
L 400.027183 337.941551 
L 401.301875 103.271201 
L 402.576566 70.112553 
L 403.851258 177.100247 
L 405.125949 259.176037 
L 406.400641 312.376184 
L 407.675333 348.360369 
L 408.950024 374.032906 
L 410.224716 393.097595 
L 411.499407 407.662896 
L 412.774099 419.024704 
L 414.04879 428.032788 
L 415.323482 435.27181 
L 416.598173 441.157992 
L 417.872865 445.994983 
L 419.147556 450.008408 
L 420.422248 453.368378 
L 421.696939 456.204731 
L 422.971631 458.617651 
L 424.246322 460.685203 
L 425.521014 462.468778 
L 426.795705 464.017074 
L 428.070397 465.369032 
L 430.61978 467.603563 
L 433.169163 469.359818 
L 435.718546 470.764472 
L 438.267929 471.905293 
L 440.817312 472.844482 
L 444.641387 473.970278 
L 448.465461 474.846477 
L 453.564227 475.74254 
L 458.662994 476.42097 
L 465.036451 477.060711 
L 473.959292 477.701009 
L 485.431516 478.255802 
L 499.453122 478.69772 
L 519.848187 479.092283 
L 549.166092 479.408329 
L 595.054987 479.653216 
L 675.360553 479.829823 
L 697.030309 479.855289 
L 697.030309 479.855289 
" clip-path="url(#pb6106fe9af)" style="fill: none; stroke: #ff0000; stroke-linecap: square"/>
   </g>
   <g id="patch_3">
    <path d="M 84.693994 500.500956 
L 84.693994 49.617867 
" style="fill: none; stroke: #000000; stroke-width: 0.8; stroke-linejoin: miter; stroke-linecap: square"/>
   </g>
   <g id="patch_4">
    <path d="M 696.24 500.500956 
L 696.24 49.617867 
" style="fill: none; stroke: #000000; stroke-width: 0.8; stroke-linejoin: miter; stroke-linecap: square"/>
   </g>
   <g id="patch_5">
    <path d="M 84.693994 500.500956 
L 696.24 500.500956 
" style="fill: none; stroke: #000000; stroke-width: 0.8; stroke-linejoin: miter; stroke-linecap: square"/>
   </g>
   <g id="patch_6">
    <path d="M 84.693994 49.617867 
L 696.24 49.617867 
" style="fill: none; stroke: #000000; stroke-width: 0.8; stroke-linejoin: miter; stroke-linecap: square"/>
   </g>
   <g id="text_13">
    <!-- $\rho(\omega)$ with $t = 0.05$ -->
    <g transform="translate(293.050099 43.163829) scale(0.26 -0.26)">
     <defs>
      <path id="CMR17-77" d="M 3725 2183 
C 3853 2560 4109 2560 4205 2560 
L 4205 2732 
C 4077 2732 3949 2732 3821 2732 
C 3699 2732 3424 2732 3315 2738 
L 3315 2560 
C 3514 2560 3622 2445 3622 2286 
C 3622 2241 3610 2184 3597 2140 
L 2995 407 
L 2342 2275 
C 2330 2319 2310 2370 2310 2395 
C 2310 2560 2528 2560 2630 2560 
L 2630 2738 
C 2483 2732 2214 2732 2061 2732 
C 1901 2732 1734 2732 1587 2738 
L 1587 2560 
C 1939 2560 1939 2547 2074 2149 
L 1485 451 
L 851 2281 
C 819 2363 819 2376 819 2395 
C 819 2560 1037 2560 1139 2560 
L 1139 2738 
C 986 2732 717 2732 557 2732 
C 416 2732 198 2732 64 2738 
L 64 2560 
C 346 2560 416 2541 486 2331 
L 1274 49 
C 1299 -33 1318 -52 1370 -52 
C 1414 -52 1440 -39 1472 56 
L 2131 1980 
L 2797 56 
C 2829 -39 2854 -52 2899 -52 
C 2950 -52 2970 -33 2995 50 
L 3725 2183 
z
" transform="scale(0.015625)"/>
      <path id="CMR17-69" d="M 992 3909 
C 992 4049 877 4170 730 4170 
C 589 4170 467 4056 467 3909 
C 467 3769 582 3648 730 3648 
C 870 3648 992 3763 992 3909 
z
M 243 2706 
L 243 2541 
C 602 2541 653 2502 653 2197 
L 653 427 
C 653 184 627 153 218 153 
L 218 -13 
C 371 0 646 0 806 0 
C 960 0 1222 0 1370 -13 
L 1370 153 
C 992 153 979 191 979 420 
L 979 2776 
L 243 2706 
z
" transform="scale(0.015625)"/>
      <path id="CMR17-74" d="M 966 2560 
L 1862 2560 
L 1862 2725 
L 966 2725 
L 966 3904 
L 851 3904 
C 838 3245 614 2668 70 2668 
L 70 2560 
L 627 2560 
L 627 771 
C 627 650 627 -64 1370 -64 
C 1747 -64 1965 306 1965 777 
L 1965 1140 
L 1850 1140 
L 1850 783 
C 1850 344 1677 51 1408 51 
C 1222 51 966 178 966 758 
L 966 2560 
z
" transform="scale(0.015625)"/>
      <path id="CMR17-68" d="M 2656 1933 
C 2656 2259 2592 2790 1837 2790 
C 1312 2790 1056 2368 979 2157 
L 973 2157 
L 973 4396 
L 211 4326 
L 211 4160 
C 589 4160 646 4122 646 3817 
L 646 426 
C 646 184 621 153 211 153 
L 211 -13 
C 365 0 646 0 813 0 
C 979 0 1267 0 1421 -13 
L 1421 153 
C 1011 153 986 178 986 428 
L 986 1658 
C 986 2247 1344 2688 1792 2688 
C 2266 2688 2317 2266 2317 1958 
L 2317 428 
C 2317 184 2291 153 1882 153 
L 1882 -13 
C 2035 0 2317 0 2483 0 
C 2650 0 2938 0 3091 -13 
L 3091 153 
C 2682 153 2656 178 2656 428 
L 2656 1933 
z
" transform="scale(0.015625)"/>
      <path id="CMMI12-74" d="M 1286 2566 
L 1875 2566 
C 1997 2566 2061 2566 2061 2681 
C 2061 2752 2022 2752 1894 2752 
L 1331 2752 
L 1568 3692 
C 1594 3781 1594 3794 1594 3840 
C 1594 3943 1510 4000 1427 4000 
C 1376 4000 1229 3981 1178 3775 
L 928 2752 
L 326 2752 
C 198 2752 141 2752 141 2630 
C 141 2566 186 2566 307 2566 
L 877 2566 
L 454 881 
C 403 658 384 594 384 511 
C 384 211 595 -64 954 -64 
C 1600 -64 1946 868 1946 912 
C 1946 951 1920 970 1882 970 
C 1869 970 1843 970 1830 944 
C 1824 938 1818 931 1773 829 
C 1638 511 1344 64 973 64 
C 781 64 768 224 768 364 
C 768 370 768 492 787 568 
L 1286 2566 
z
" transform="scale(0.015625)"/>
      <path id="CMR17-3d" d="M 4115 2017 
C 4211 2017 4307 2017 4307 2125 
C 4307 2240 4198 2240 4090 2240 
L 512 2240 
C 403 2240 294 2240 294 2125 
C 294 2017 390 2017 486 2017 
L 4115 2017 
z
M 4090 896 
C 4198 896 4307 896 4307 1011 
C 4307 1119 4211 1119 4115 1119 
L 486 1119 
C 390 1119 294 1119 294 1011 
C 294 896 403 896 512 896 
L 4090 896 
z
" transform="scale(0.015625)"/>
     </defs>
     <use xlink:href="#CMMI12-1a" transform="scale(0.996264)"/>
     <use xlink:href="#CMR17-28" transform="translate(50.314373 0) scale(0.996264)"/>
     <use xlink:href="#CMMI12-21" transform="translate(85.595141 0) scale(0.996264)"/>
     <use xlink:href="#CMR17-29" transform="translate(149.913487 0) scale(0.996264)"/>
     <use xlink:href="#CMR17-77" transform="translate(215.270221 0) scale(0.996264)"/>
     <use xlink:href="#CMR17-69" transform="translate(281.780101 0) scale(0.996264)"/>
     <use xlink:href="#CMR17-74" transform="translate(306.65116 0) scale(0.996264)"/>
     <use xlink:href="#CMR17-68" transform="translate(341.931928 0) scale(0.996264)"/>
     <use xlink:href="#CMMI12-74" transform="translate(422.903264 0) scale(0.996264)"/>
     <use xlink:href="#CMR17-3d" transform="translate(485.803603 0) scale(0.996264)"/>
     <use xlink:href="#CMR17-30" transform="translate(585.1924 0) scale(0.996264)"/>
     <use xlink:href="#CMMI12-3a" transform="translate(630.882877 0) scale(0.996264)"/>
     <use xlink:href="#CMR17-30" transform="translate(657.980054 0) scale(0.996264)"/>
     <use xlink:href="#CMR17-35" transform="translate(703.670531 0) scale(0.996264)"/>
    </g>
   </g>
  </g>
 </g>
 <defs>
  <clipPath id="pb6106fe9af">
   <rect x="84.693994" y="49.617867" width="611.546006" height="450.883089"/>
  </clipPath>
 </defs>
</svg>
