<?xml version="1.0" encoding="utf-8" standalone="no"?>
<!DOCTYPE svg PUBLIC "-//W3C//DTD SVG 1.1//EN"
  "http://www.w3.org/Graphics/SVG/1.1/DTD/svg11.dtd">
<svg xmlns:xlink="http://www.w3.org/1999/xlink" width="720pt" height="576pt" viewBox="0 0 720 576" xmlns="http://www.w3.org/2000/svg" version="1.1">
 <metadata>
  <rdf:RDF xmlns:dc="http://purl.org/dc/elements/1.1/" xmlns:cc="http://creativecommons.org/ns#" xmlns:rdf="http://www.w3.org/1999/02/22-rdf-syntax-ns#">
   <cc:Work>
    <dc:type rdf:resource="http://purl.org/dc/dcmitype/StillImage"/>
    <dc:date>2025-07-19T00:30:07.109018</dc:date>
    <dc:format>image/svg+xml</dc:format>
    <dc:creator>
     <cc:Agent>
      <dc:title>Matplotlib v3.9.2, https://matplotlib.org/</dc:title>
     </cc:Agent>
    </dc:creator>
   </cc:Work>
  </rdf:RDF>
 </metadata>
 <defs>
  <style type="text/css">*{stroke-linejoin: round; stroke-linecap: butt}</style>
 </defs>
 <g id="figure_1">
  <g id="patch_1">
   <path d="M 0 576 
L 720 576 
L 720 0 
L 0 0 
z
" style="fill: #ffffff"/>
  </g>
  <g id="axes_1">
   <g id="patch_2">
    <path d="M 84.016019 523.313031 
L 704.88 523.313031 
L 704.88 34.55342 
L 84.016019 34.55342 
z
" style="fill: #ffffff"/>
   </g>
   <g id="matplotlib.axis_1">
    <g id="xtick_1">
     <g id="line2d_1">
      <path d="M 146.102417 523.313031 
L 146.102417 34.55342 
" clip-path="url(#p24c7609bec)" style="fill: none; stroke: #b0b0b0; stroke-opacity: 0.3; stroke-width: 0.8; stroke-linecap: square"/>
     </g>
     <g id="line2d_2">
      <defs>
       <path id="m2d48f5490f" d="M 0 0 
L 0 3.5 
" style="stroke: #000000; stroke-width: 0.8"/>
      </defs>
      <g>
       <use xlink:href="#m2d48f5490f" x="146.102417" y="523.313031" style="stroke: #000000; stroke-width: 0.8"/>
      </g>
     </g>
     <g id="text_1">
      <!-- $\mathdefault{−4}$ -->
      <g transform="translate(137.264055 539.998907) scale(0.14 -0.14)">
       <defs>
        <path id="CMSY10-0" d="M 4218 1472 
C 4326 1472 4442 1472 4442 1600 
C 4442 1728 4326 1728 4218 1728 
L 755 1728 
C 646 1728 531 1728 531 1600 
C 531 1472 646 1472 755 1472 
L 4218 1472 
z
" transform="scale(0.015625)"/>
        <path id="CMR17-34" d="M 2150 4122 
C 2150 4256 2144 4256 2029 4256 
L 128 1254 
L 128 1088 
L 1779 1088 
L 1779 457 
C 1779 224 1766 160 1318 160 
L 1197 160 
L 1197 0 
C 1402 0 1747 0 1965 0 
C 2182 0 2528 0 2733 0 
L 2733 160 
L 2611 160 
C 2163 160 2150 224 2150 457 
L 2150 1088 
L 2803 1088 
L 2803 1254 
L 2150 1254 
L 2150 4122 
z
M 1798 3703 
L 1798 1254 
L 256 1254 
L 1798 3703 
z
" transform="scale(0.015625)"/>
       </defs>
       <use xlink:href="#CMSY10-0" transform="scale(0.996264)"/>
       <use xlink:href="#CMR17-34" transform="translate(77.487468 0) scale(0.996264)"/>
      </g>
     </g>
    </g>
    <g id="xtick_2">
     <g id="line2d_3">
      <path d="M 270.275213 523.313031 
L 270.275213 34.55342 
" clip-path="url(#p24c7609bec)" style="fill: none; stroke: #b0b0b0; stroke-opacity: 0.3; stroke-width: 0.8; stroke-linecap: square"/>
     </g>
     <g id="line2d_4">
      <g>
       <use xlink:href="#m2d48f5490f" x="270.275213" y="523.313031" style="stroke: #000000; stroke-width: 0.8"/>
      </g>
     </g>
     <g id="text_2">
      <!-- $\mathdefault{−2}$ -->
      <g transform="translate(261.436851 539.998907) scale(0.14 -0.14)">
       <defs>
        <path id="CMR17-32" d="M 2669 989 
L 2554 989 
C 2490 536 2438 459 2413 420 
C 2381 369 1920 369 1830 369 
L 602 369 
C 832 619 1280 1072 1824 1597 
C 2214 1967 2669 2402 2669 3035 
C 2669 3790 2067 4224 1395 4224 
C 691 4224 262 3604 262 3030 
C 262 2780 448 2748 525 2748 
C 589 2748 781 2787 781 3010 
C 781 3207 614 3264 525 3264 
C 486 3264 448 3258 422 3245 
C 544 3790 915 4058 1306 4058 
C 1862 4058 2227 3617 2227 3035 
C 2227 2479 1901 2000 1536 1584 
L 262 146 
L 262 0 
L 2515 0 
L 2669 989 
z
" transform="scale(0.015625)"/>
       </defs>
       <use xlink:href="#CMSY10-0" transform="scale(0.996264)"/>
       <use xlink:href="#CMR17-32" transform="translate(77.487468 0) scale(0.996264)"/>
      </g>
     </g>
    </g>
    <g id="xtick_3">
     <g id="line2d_5">
      <path d="M 394.448009 523.313031 
L 394.448009 34.55342 
" clip-path="url(#p24c7609bec)" style="fill: none; stroke: #b0b0b0; stroke-opacity: 0.3; stroke-width: 0.8; stroke-linecap: square"/>
     </g>
     <g id="line2d_6">
      <g>
       <use xlink:href="#m2d48f5490f" x="394.448009" y="523.313031" style="stroke: #000000; stroke-width: 0.8"/>
      </g>
     </g>
     <g id="text_3">
      <!-- $\mathdefault{0}$ -->
      <g transform="translate(391.033765 539.998907) scale(0.14 -0.14)">
       <defs>
        <path id="CMR17-30" d="M 2688 2025 
C 2688 2416 2682 3080 2413 3591 
C 2176 4039 1798 4198 1466 4198 
C 1158 4198 768 4058 525 3597 
C 269 3118 243 2524 243 2025 
C 243 1661 250 1106 448 619 
C 723 -39 1216 -128 1466 -128 
C 1760 -128 2208 -7 2470 600 
C 2662 1042 2688 1559 2688 2025 
z
M 1466 -26 
C 1056 -26 813 325 723 812 
C 653 1188 653 1738 653 2096 
C 653 2588 653 2997 736 3387 
C 858 3929 1216 4096 1466 4096 
C 1728 4096 2067 3923 2189 3400 
C 2272 3036 2278 2607 2278 2096 
C 2278 1680 2278 1169 2202 792 
C 2067 95 1690 -26 1466 -26 
z
" transform="scale(0.015625)"/>
       </defs>
       <use xlink:href="#CMR17-30" transform="scale(0.996264)"/>
      </g>
     </g>
    </g>
    <g id="xtick_4">
     <g id="line2d_7">
      <path d="M 518.620806 523.313031 
L 518.620806 34.55342 
" clip-path="url(#p24c7609bec)" style="fill: none; stroke: #b0b0b0; stroke-opacity: 0.3; stroke-width: 0.8; stroke-linecap: square"/>
     </g>
     <g id="line2d_8">
      <g>
       <use xlink:href="#m2d48f5490f" x="518.620806" y="523.313031" style="stroke: #000000; stroke-width: 0.8"/>
      </g>
     </g>
     <g id="text_4">
      <!-- $\mathdefault{2}$ -->
      <g transform="translate(515.206561 539.998907) scale(0.14 -0.14)">
       <use xlink:href="#CMR17-32" transform="scale(0.996264)"/>
      </g>
     </g>
    </g>
    <g id="xtick_5">
     <g id="line2d_9">
      <path d="M 642.793602 523.313031 
L 642.793602 34.55342 
" clip-path="url(#p24c7609bec)" style="fill: none; stroke: #b0b0b0; stroke-opacity: 0.3; stroke-width: 0.8; stroke-linecap: square"/>
     </g>
     <g id="line2d_10">
      <g>
       <use xlink:href="#m2d48f5490f" x="642.793602" y="523.313031" style="stroke: #000000; stroke-width: 0.8"/>
      </g>
     </g>
     <g id="text_5">
      <!-- $\mathdefault{4}$ -->
      <g transform="translate(639.379358 539.998907) scale(0.14 -0.14)">
       <use xlink:href="#CMR17-34" transform="scale(0.996264)"/>
      </g>
     </g>
    </g>
    <g id="text_6">
     <!-- $\omega$ -->
     <g transform="translate(389.588509 557.780524) scale(0.16 -0.16)">
      <defs>
       <path id="CMMI12-21" d="M 3802 2395 
C 3802 2580 3750 2816 3526 2816 
C 3398 2816 3251 2657 3251 2529 
C 3251 2472 3277 2434 3328 2376 
C 3424 2268 3546 2096 3546 1797 
C 3546 1567 3405 1204 3302 1007 
C 3123 656 2829 357 2496 357 
C 2093 357 1939 615 1869 975 
C 1939 1143 2086 1560 2086 1728 
C 2086 1798 2061 1856 1978 1856 
C 1933 1856 1882 1831 1850 1779 
C 1760 1638 1677 1129 1683 994 
C 1562 756 1216 357 806 357 
C 378 357 262 733 262 1096 
C 262 1758 678 2338 794 2497 
C 858 2593 902 2657 902 2669 
C 902 2714 877 2784 819 2784 
C 717 2784 685 2701 634 2625 
C 307 2121 77 1414 77 803 
C 77 408 224 -64 704 -64 
C 1235 -64 1568 391 1702 634 
C 1754 275 1946 -64 2413 -64 
C 2899 -64 3206 363 3437 879 
C 3603 1249 3802 2045 3802 2395 
z
" transform="scale(0.015625)"/>
      </defs>
      <use xlink:href="#CMMI12-21" transform="scale(0.996264)"/>
     </g>
    </g>
   </g>
   <g id="matplotlib.axis_2">
    <g id="ytick_1">
     <g id="line2d_11">
      <path d="M 84.016019 475.890097 
L 704.88 475.890097 
" clip-path="url(#p24c7609bec)" style="fill: none; stroke: #b0b0b0; stroke-opacity: 0.3; stroke-width: 0.8; stroke-linecap: square"/>
     </g>
     <g id="line2d_12">
      <defs>
       <path id="mcc53ca7c3e" d="M 0 0 
L -3.5 0 
" style="stroke: #000000; stroke-width: 0.8"/>
      </defs>
      <g>
       <use xlink:href="#mcc53ca7c3e" x="84.016019" y="475.890097" style="stroke: #000000; stroke-width: 0.8"/>
      </g>
     </g>
     <g id="text_7">
      <!-- $\mathdefault{−0.004}$ -->
      <g transform="translate(35.060224 480.733035) scale(0.14 -0.14)">
       <defs>
        <path id="CMMI12-3a" d="M 1178 307 
C 1178 492 1024 619 870 619 
C 685 619 557 466 557 313 
C 557 128 710 0 864 0 
C 1050 0 1178 153 1178 307 
z
" transform="scale(0.015625)"/>
       </defs>
       <use xlink:href="#CMSY10-0" transform="scale(0.996264)"/>
       <use xlink:href="#CMR17-30" transform="translate(77.487468 0) scale(0.996264)"/>
       <use xlink:href="#CMMI12-3a" transform="translate(123.177945 0) scale(0.996264)"/>
       <use xlink:href="#CMR17-30" transform="translate(150.275122 0) scale(0.996264)"/>
       <use xlink:href="#CMR17-30" transform="translate(195.965599 0) scale(0.996264)"/>
       <use xlink:href="#CMR17-34" transform="translate(241.656076 0) scale(0.996264)"/>
      </g>
     </g>
    </g>
    <g id="ytick_2">
     <g id="line2d_13">
      <path d="M 84.016019 403.557058 
L 704.88 403.557058 
" clip-path="url(#p24c7609bec)" style="fill: none; stroke: #b0b0b0; stroke-opacity: 0.3; stroke-width: 0.8; stroke-linecap: square"/>
     </g>
     <g id="line2d_14">
      <g>
       <use xlink:href="#mcc53ca7c3e" x="84.016019" y="403.557058" style="stroke: #000000; stroke-width: 0.8"/>
      </g>
     </g>
     <g id="text_8">
      <!-- $\mathdefault{−0.003}$ -->
      <g transform="translate(35.060224 408.399997) scale(0.14 -0.14)">
       <defs>
        <path id="CMR17-33" d="M 1414 2157 
C 1984 2157 2234 1662 2234 1090 
C 2234 320 1824 25 1453 25 
C 1114 25 563 194 390 693 
C 422 680 454 680 486 680 
C 640 680 755 782 755 948 
C 755 1133 614 1216 486 1216 
C 378 1216 211 1165 211 926 
C 211 335 787 -128 1466 -128 
C 2176 -128 2720 430 2720 1085 
C 2720 1707 2208 2157 1600 2227 
C 2086 2328 2554 2756 2554 3329 
C 2554 3820 2048 4179 1472 4179 
C 890 4179 378 3829 378 3329 
C 378 3110 544 3072 627 3072 
C 762 3072 877 3155 877 3321 
C 877 3486 762 3569 627 3569 
C 602 3569 570 3569 544 3557 
C 730 3959 1235 4032 1459 4032 
C 1683 4032 2106 3925 2106 3320 
C 2106 3143 2080 2828 1862 2550 
C 1670 2304 1453 2304 1242 2284 
C 1210 2284 1062 2269 1037 2269 
C 992 2263 966 2257 966 2208 
C 966 2163 973 2157 1101 2157 
L 1414 2157 
z
" transform="scale(0.015625)"/>
       </defs>
       <use xlink:href="#CMSY10-0" transform="scale(0.996264)"/>
       <use xlink:href="#CMR17-30" transform="translate(77.487468 0) scale(0.996264)"/>
       <use xlink:href="#CMMI12-3a" transform="translate(123.177945 0) scale(0.996264)"/>
       <use xlink:href="#CMR17-30" transform="translate(150.275122 0) scale(0.996264)"/>
       <use xlink:href="#CMR17-30" transform="translate(195.965599 0) scale(0.996264)"/>
       <use xlink:href="#CMR17-33" transform="translate(241.656076 0) scale(0.996264)"/>
      </g>
     </g>
    </g>
    <g id="ytick_3">
     <g id="line2d_15">
      <path d="M 84.016019 331.22402 
L 704.88 331.22402 
" clip-path="url(#p24c7609bec)" style="fill: none; stroke: #b0b0b0; stroke-opacity: 0.3; stroke-width: 0.8; stroke-linecap: square"/>
     </g>
     <g id="line2d_16">
      <g>
       <use xlink:href="#mcc53ca7c3e" x="84.016019" y="331.22402" style="stroke: #000000; stroke-width: 0.8"/>
      </g>
     </g>
     <g id="text_9">
      <!-- $\mathdefault{−0.002}$ -->
      <g transform="translate(35.060224 336.066958) scale(0.14 -0.14)">
       <use xlink:href="#CMSY10-0" transform="scale(0.996264)"/>
       <use xlink:href="#CMR17-30" transform="translate(77.487468 0) scale(0.996264)"/>
       <use xlink:href="#CMMI12-3a" transform="translate(123.177945 0) scale(0.996264)"/>
       <use xlink:href="#CMR17-30" transform="translate(150.275122 0) scale(0.996264)"/>
       <use xlink:href="#CMR17-30" transform="translate(195.965599 0) scale(0.996264)"/>
       <use xlink:href="#CMR17-32" transform="translate(241.656076 0) scale(0.996264)"/>
      </g>
     </g>
    </g>
    <g id="ytick_4">
     <g id="line2d_17">
      <path d="M 84.016019 258.890981 
L 704.88 258.890981 
" clip-path="url(#p24c7609bec)" style="fill: none; stroke: #b0b0b0; stroke-opacity: 0.3; stroke-width: 0.8; stroke-linecap: square"/>
     </g>
     <g id="line2d_18">
      <g>
       <use xlink:href="#mcc53ca7c3e" x="84.016019" y="258.890981" style="stroke: #000000; stroke-width: 0.8"/>
      </g>
     </g>
     <g id="text_10">
      <!-- $\mathdefault{−0.001}$ -->
      <g transform="translate(35.060224 263.73392) scale(0.14 -0.14)">
       <defs>
        <path id="CMR17-31" d="M 1702 4058 
C 1702 4192 1696 4192 1606 4192 
C 1357 3916 979 3827 621 3827 
C 602 3827 570 3827 563 3808 
C 557 3795 557 3782 557 3648 
C 755 3648 1088 3686 1344 3839 
L 1344 461 
C 1344 236 1331 160 781 160 
L 589 160 
L 589 0 
C 896 0 1216 0 1523 0 
C 1830 0 2150 0 2458 0 
L 2458 160 
L 2266 160 
C 1715 160 1702 230 1702 458 
L 1702 4058 
z
" transform="scale(0.015625)"/>
       </defs>
       <use xlink:href="#CMSY10-0" transform="scale(0.996264)"/>
       <use xlink:href="#CMR17-30" transform="translate(77.487468 0) scale(0.996264)"/>
       <use xlink:href="#CMMI12-3a" transform="translate(123.177945 0) scale(0.996264)"/>
       <use xlink:href="#CMR17-30" transform="translate(150.275122 0) scale(0.996264)"/>
       <use xlink:href="#CMR17-30" transform="translate(195.965599 0) scale(0.996264)"/>
       <use xlink:href="#CMR17-31" transform="translate(241.656076 0) scale(0.996264)"/>
      </g>
     </g>
    </g>
    <g id="ytick_5">
     <g id="line2d_19">
      <path d="M 84.016019 186.557943 
L 704.88 186.557943 
" clip-path="url(#p24c7609bec)" style="fill: none; stroke: #b0b0b0; stroke-opacity: 0.3; stroke-width: 0.8; stroke-linecap: square"/>
     </g>
     <g id="line2d_20">
      <g>
       <use xlink:href="#mcc53ca7c3e" x="84.016019" y="186.557943" style="stroke: #000000; stroke-width: 0.8"/>
      </g>
     </g>
     <g id="text_11">
      <!-- $\mathdefault{0.000}$ -->
      <g transform="translate(45.908459 191.400881) scale(0.14 -0.14)">
       <use xlink:href="#CMR17-30" transform="scale(0.996264)"/>
       <use xlink:href="#CMMI12-3a" transform="translate(45.690477 0) scale(0.996264)"/>
       <use xlink:href="#CMR17-30" transform="translate(72.787654 0) scale(0.996264)"/>
       <use xlink:href="#CMR17-30" transform="translate(118.478131 0) scale(0.996264)"/>
       <use xlink:href="#CMR17-30" transform="translate(164.168608 0) scale(0.996264)"/>
      </g>
     </g>
    </g>
    <g id="ytick_6">
     <g id="line2d_21">
      <path d="M 84.016019 114.224905 
L 704.88 114.224905 
" clip-path="url(#p24c7609bec)" style="fill: none; stroke: #b0b0b0; stroke-opacity: 0.3; stroke-width: 0.8; stroke-linecap: square"/>
     </g>
     <g id="line2d_22">
      <g>
       <use xlink:href="#mcc53ca7c3e" x="84.016019" y="114.224905" style="stroke: #000000; stroke-width: 0.8"/>
      </g>
     </g>
     <g id="text_12">
      <!-- $\mathdefault{0.001}$ -->
      <g transform="translate(45.908459 119.067843) scale(0.14 -0.14)">
       <use xlink:href="#CMR17-30" transform="scale(0.996264)"/>
       <use xlink:href="#CMMI12-3a" transform="translate(45.690477 0) scale(0.996264)"/>
       <use xlink:href="#CMR17-30" transform="translate(72.787654 0) scale(0.996264)"/>
       <use xlink:href="#CMR17-30" transform="translate(118.478131 0) scale(0.996264)"/>
       <use xlink:href="#CMR17-31" transform="translate(164.168608 0) scale(0.996264)"/>
      </g>
     </g>
    </g>
    <g id="ytick_7">
     <g id="line2d_23">
      <path d="M 84.016019 41.891866 
L 704.88 41.891866 
" clip-path="url(#p24c7609bec)" style="fill: none; stroke: #b0b0b0; stroke-opacity: 0.3; stroke-width: 0.8; stroke-linecap: square"/>
     </g>
     <g id="line2d_24">
      <g>
       <use xlink:href="#mcc53ca7c3e" x="84.016019" y="41.891866" style="stroke: #000000; stroke-width: 0.8"/>
      </g>
     </g>
     <g id="text_13">
      <!-- $\mathdefault{0.002}$ -->
      <g transform="translate(45.908459 46.734804) scale(0.14 -0.14)">
       <use xlink:href="#CMR17-30" transform="scale(0.996264)"/>
       <use xlink:href="#CMMI12-3a" transform="translate(45.690477 0) scale(0.996264)"/>
       <use xlink:href="#CMR17-30" transform="translate(72.787654 0) scale(0.996264)"/>
       <use xlink:href="#CMR17-30" transform="translate(118.478131 0) scale(0.996264)"/>
       <use xlink:href="#CMR17-32" transform="translate(164.168608 0) scale(0.996264)"/>
      </g>
     </g>
    </g>
    <g id="text_14">
     <!-- $\rho(\omega)$ -->
     <g transform="translate(27.075168 294.173613) rotate(-90) scale(0.16 -0.16)">
      <defs>
       <path id="CMMI12-1a" d="M 198 -1107 
C 192 -1139 179 -1177 179 -1216 
C 179 -1312 256 -1376 352 -1376 
C 448 -1376 538 -1312 576 -1222 
C 602 -1164 781 -397 986 390 
C 1114 70 1350 -64 1600 -64 
C 2323 -64 3142 830 3142 1795 
C 3142 2478 2726 2816 2285 2816 
C 1722 2816 1037 2235 826 1385 
L 198 -1107 
z
M 1594 64 
C 1158 64 1050 569 1050 645 
C 1050 684 1210 1295 1229 1391 
C 1555 2670 2182 2670 2278 2670 
C 2566 2670 2726 2410 2726 2036 
C 2726 1712 2554 1084 2445 819 
C 2253 381 1920 64 1594 64 
z
" transform="scale(0.015625)"/>
       <path id="CMR17-28" d="M 1958 -1561 
C 1958 -1555 1958 -1542 1939 -1523 
C 1645 -1224 858 -407 858 1581 
C 858 3569 1632 4379 1946 4697 
C 1946 4704 1958 4717 1958 4736 
C 1958 4755 1939 4768 1914 4768 
C 1843 4768 1299 4296 986 3594 
C 666 2887 576 2199 576 1588 
C 576 1128 621 351 1005 -471 
C 1312 -1135 1837 -1600 1914 -1600 
C 1946 -1600 1958 -1587 1958 -1561 
z
" transform="scale(0.015625)"/>
       <path id="CMR17-29" d="M 1683 1581 
C 1683 2040 1638 2817 1254 3639 
C 947 4303 422 4768 346 4768 
C 326 4768 301 4761 301 4729 
C 301 4717 307 4710 314 4697 
C 621 4378 1402 3568 1402 1584 
C 1402 -407 627 -1217 314 -1537 
C 307 -1549 301 -1556 301 -1568 
C 301 -1600 326 -1600 346 -1600 
C 416 -1600 960 -1128 1274 -426 
C 1594 281 1683 969 1683 1581 
z
" transform="scale(0.015625)"/>
      </defs>
      <use xlink:href="#CMMI12-1a" transform="scale(0.996264)"/>
      <use xlink:href="#CMR17-28" transform="translate(50.314373 0) scale(0.996264)"/>
      <use xlink:href="#CMMI12-21" transform="translate(85.595141 0) scale(0.996264)"/>
      <use xlink:href="#CMR17-29" transform="translate(149.913487 0) scale(0.996264)"/>
     </g>
    </g>
   </g>
   <g id="line2d_25">
    <path d="M 84.016019 182.22191 
L 106.378303 181.368447 
L 125.01354 180.441302 
L 140.853492 179.435638 
L 154.519332 178.34756 
L 166.321649 177.187651 
L 176.571029 175.963266 
L 185.578061 174.673244 
L 193.65333 173.301687 
L 201.107425 171.810675 
L 207.629758 170.287984 
L 213.841503 168.607018 
L 219.432075 166.861919 
L 224.401471 165.090105 
L 229.06028 163.206274 
L 233.408502 161.220369 
L 237.446137 159.147496 
L 241.483772 156.81945 
L 245.210819 154.409451 
L 248.627279 151.947992 
L 252.043739 149.211648 
L 255.149612 146.454254 
L 258.255485 143.40735 
L 261.361358 140.035781 
L 264.156644 136.691879 
L 266.951929 133.023311 
L 269.747215 128.998153 
L 272.5425 124.583988 
L 275.337786 119.749688 
L 278.133071 114.468341 
L 280.928357 108.721923 
L 284.03423 101.790105 
L 287.45069 93.547392 
L 291.798912 82.376034 
L 296.768308 69.660135 
L 298.942419 64.683162 
L 300.495356 61.60787 
L 301.737705 59.561044 
L 302.669467 58.333545 
L 303.601229 57.424445 
L 304.53299 56.889072 
L 305.154165 56.769766 
L 305.77534 56.863271 
L 306.396514 57.190419 
L 307.017689 57.773237 
L 307.638863 58.634927 
L 308.260038 59.799816 
L 309.1918 62.171455 
L 310.123562 65.372273 
L 311.055323 69.495722 
L 311.987085 74.637625 
L 312.918847 80.894235 
L 314.161196 91.132499 
L 315.403545 103.726705 
L 316.645895 118.851765 
L 317.888244 136.630985 
L 319.44118 162.654971 
L 320.994117 192.778861 
L 322.85764 233.731133 
L 325.342339 294.092546 
L 329.379973 392.998248 
L 330.93291 426.231626 
L 332.175259 449.243173 
L 333.417608 468.406464 
L 334.34937 479.988817 
L 335.281132 489.056611 
L 336.212893 495.570817 
L 336.834068 498.504773 
L 337.455243 500.335802 
L 337.76583 500.847579 
L 338.076417 501.096685 
L 338.387004 501.088689 
L 338.697592 500.829675 
L 339.008179 500.326194 
L 339.629354 498.614146 
L 340.250528 496.012758 
L 341.18229 490.586307 
L 342.114052 483.538342 
L 343.356401 472.034153 
L 344.909337 455.058873 
L 347.083448 428.268417 
L 353.295194 349.608788 
L 355.469305 325.22757 
L 357.643416 303.365677 
L 359.50694 286.70198 
L 361.370464 271.904688 
L 363.233987 258.866736 
L 365.097511 247.449793 
L 366.961035 237.502317 
L 368.824558 228.871564 
L 370.688082 221.411139 
L 372.551606 214.985361 
L 374.415129 209.471472 
L 376.278653 204.76042 
L 377.83159 201.378569 
L 379.384526 198.439431 
L 380.937462 195.90063 
L 382.490399 193.725329 
L 384.043335 191.881838 
L 385.596272 190.343238 
L 387.149208 189.087041 
L 388.702145 188.094878 
L 390.255081 187.352248 
L 391.808017 186.848299 
L 393.360954 186.575673 
L 394.91389 186.53039 
L 396.466827 186.711788 
L 398.019763 187.122515 
L 399.572699 187.76857 
L 401.125636 188.659388 
L 402.678572 189.807989 
L 404.231509 191.231166 
L 405.784445 192.949726 
L 407.337382 194.988776 
L 408.890318 197.378053 
L 410.443254 200.15229 
L 411.996191 203.3516 
L 413.549127 207.02187 
L 415.102064 211.215129 
L 416.655 215.989851 
L 418.207937 221.411139 
L 419.760873 227.550701 
L 421.313809 234.48651 
L 422.866746 242.301997 
L 424.73027 252.964966 
L 426.593793 265.173953 
L 428.457317 279.075732 
L 430.320841 294.795703 
L 432.184364 312.416174 
L 434.358475 335.381487 
L 436.532586 360.753232 
L 439.638459 400.074267 
L 443.676094 451.401895 
L 445.539618 472.034153 
L 446.781967 483.538342 
L 447.713729 490.586307 
L 448.64549 496.012758 
L 449.266665 498.614146 
L 449.88784 500.326194 
L 450.198427 500.829675 
L 450.509014 501.088689 
L 450.819601 501.096685 
L 451.130189 500.847579 
L 451.440776 500.335802 
L 452.061951 498.504773 
L 452.683125 495.570817 
L 453.3043 491.511792 
L 454.236062 483.294093 
L 455.167823 472.541511 
L 456.099585 459.337185 
L 457.341934 438.184218 
L 458.894871 406.808352 
L 460.758395 363.767801 
L 467.591315 199.264907 
L 469.454838 162.654971 
L 471.007775 136.630985 
L 472.560711 114.82541 
L 473.80306 100.346994 
L 475.04541 88.359744 
L 476.287759 78.678954 
L 477.530108 71.091762 
L 478.46187 66.639542 
L 479.393632 63.141715 
L 480.325393 60.503855 
L 481.257155 58.634927 
L 481.87833 57.773237 
L 482.499504 57.190419 
L 483.120679 56.863271 
L 483.741854 56.769766 
L 484.363028 56.889072 
L 484.984203 57.201562 
L 485.915965 57.992521 
L 486.847726 59.119681 
L 488.090076 61.057243 
L 489.643012 64.029726 
L 491.506536 68.176945 
L 493.991234 74.307783 
L 504.551202 101.066223 
L 507.657074 108.054428 
L 510.762947 114.468341 
L 513.558233 119.749688 
L 516.353518 124.583988 
L 519.148804 128.998153 
L 521.94409 133.023311 
L 524.739375 136.691879 
L 527.845248 140.388624 
L 530.951121 143.726042 
L 534.056994 146.742472 
L 537.473454 149.731227 
L 540.889914 152.41496 
L 544.306374 154.830077 
L 548.033421 157.195749 
L 552.071056 159.482091 
L 556.108691 161.518868 
L 560.456913 163.471208 
L 565.115722 165.324211 
L 570.085119 167.068016 
L 575.67569 168.786548 
L 581.576848 170.365753 
L 588.099181 171.877757 
L 595.242689 173.301687 
L 603.007371 174.62456 
L 611.703815 175.881315 
L 621.642608 177.085526 
L 632.82375 178.207928 
L 645.557829 179.254945 
L 660.155431 180.225288 
L 677.237732 181.129008 
L 697.115318 181.951834 
L 704.88 182.22191 
L 704.88 182.22191 
" clip-path="url(#p24c7609bec)" style="fill: none; stroke: #ff0000; stroke-linecap: square"/>
   </g>
   <g id="patch_3">
    <path d="M 84.016019 523.313031 
L 84.016019 34.55342 
" style="fill: none; stroke: #000000; stroke-width: 0.8; stroke-linejoin: miter; stroke-linecap: square"/>
   </g>
   <g id="patch_4">
    <path d="M 704.88 523.313031 
L 704.88 34.55342 
" style="fill: none; stroke: #000000; stroke-width: 0.8; stroke-linejoin: miter; stroke-linecap: square"/>
   </g>
   <g id="patch_5">
    <path d="M 84.016019 523.313031 
L 704.88 523.313031 
" style="fill: none; stroke: #000000; stroke-width: 0.8; stroke-linejoin: miter; stroke-linecap: square"/>
   </g>
   <g id="patch_6">
    <path d="M 84.016019 34.55342 
L 704.88 34.55342 
" style="fill: none; stroke: #000000; stroke-width: 0.8; stroke-linejoin: miter; stroke-linecap: square"/>
   </g>
   <g id="text_15">
    <!-- $\rho(\omega)$ -->
    <g transform="translate(377.780547 28.55342) scale(0.18 -0.18)">
     <use xlink:href="#CMMI12-1a" transform="scale(0.996264)"/>
     <use xlink:href="#CMR17-28" transform="translate(50.314373 0) scale(0.996264)"/>
     <use xlink:href="#CMMI12-21" transform="translate(85.595141 0) scale(0.996264)"/>
     <use xlink:href="#CMR17-29" transform="translate(149.913487 0) scale(0.996264)"/>
    </g>
   </g>
  </g>
 </g>
 <defs>
  <clipPath id="p24c7609bec">
   <rect x="84.016019" y="34.55342" width="620.863981" height="488.759611"/>
  </clipPath>
 </defs>
</svg>
